<?xml version="1.0" standalone="no"?>
<!DOCTYPE svg PUBLIC "-//W3C//DTD SVG 1.1//EN" "http://www.w3.org/Graphics/SVG/1.1/DTD/svg11.dtd" >
<svg>
<metadata>
Created by FontForge 20090622 at Tue Apr  9 01:27:30 2019
 By deploy user
Copyright (c) 2013 by Marco Ugolini. All rights reserved.
</metadata>
<defs>
<font id="Biko-Black" horiz-adv-x="554" >
  <font-face 
    font-family="Biko"
    font-weight="900"
    font-stretch="normal"
    units-per-em="1000"
    panose-1="2 0 0 0 0 0 0 0 0 0"
    ascent="750"
    descent="-250"
    x-height="458"
    cap-height="712"
    bbox="-97 -272 1096 967"
    underline-thickness="50"
    underline-position="-50"
    unicode-range="U+0020-U+2212"
  />
<missing-glyph horiz-adv-x="230" 
 />
    <glyph glyph-name=".notdef" horiz-adv-x="230" 
 />
    <glyph glyph-name=".null" horiz-adv-x="0" 
 />
    <glyph glyph-name="nonmarkingreturn" horiz-adv-x="333" 
 />
    <glyph glyph-name="space" unicode=" " horiz-adv-x="230" 
 />
    <glyph glyph-name="exclam" unicode="!" horiz-adv-x="333" 
d="M247 212h-161v500h161v-500zM167 175q37 0 64 -26.5t27 -64.5q0 -39 -26.5 -65.5t-64.5 -26.5t-65 26.5t-27 65.5q0 37 27 64t65 27z" />
    <glyph glyph-name="quotedbl" unicode="&#x22;" horiz-adv-x="354" 
d="M162 480h-132v200h132v-200zM325 480h-132v200h132v-200z" />
    <glyph glyph-name="numbersign" unicode="#" horiz-adv-x="511" 
d="M345 48h-97l11 55h-57l-11 -55h-97l11 55h-55l19 95h55l12 59h-56l19 96h56l10 55h98l-11 -55h57l11 55h97l-11 -55h55l-19 -96h-55l-12 -59h55l-19 -95h-55zM221 198h57l12 59h-57z" />
    <glyph glyph-name="dollar" unicode="$" horiz-adv-x="565" 
d="M519 292q18 -34 18 -77q0 -47 -21 -87q-19 -39 -56 -70q-58 -47 -137 -58v-53h-97v56q-14 2 -37 10q-44 17 -80 45q-80 66 -80 163v43l161 -1v-42q0 -27 24 -44q4 -3 12 -7v118q-84 28 -129 66q-35 29 -51 62q-18 34 -18 76q0 95 71 158q53 46 127 58v47h97v-50
q63 -14 112 -56q78 -69 78 -173v-43h-161v43q0 39 -29 59v-111q92 -26 145 -70q34 -27 51 -62zM211 462q10 -6 15 -8v88q-38 -17 -38 -50q0 -16 23 -30zM323 163q25 8 39.5 22.5t14.5 29.5q0 17 -23 31q-14 8 -31 14v-97z" />
    <glyph glyph-name="percent" unicode="%" horiz-adv-x="791" 
d="M167 0h179l274 712h-178zM711 257q48 -46 48 -112q0 -65 -48 -111q-47 -45 -112 -45q-66 0 -113 45q-47 47 -47 111q0 65 47 112q47 45 113 45q65 0 112 -45zM599 96q20 0 34.5 14.5t14.5 34.5q0 21 -14.5 35.5t-34.5 14.5q-21 0 -35.5 -14.5t-14.5 -35.5
q0 -20 14.5 -34.5t35.5 -14.5zM307 688q47 -45 47 -111q0 -65 -47 -112q-47 -45 -113 -45q-65 0 -112 45q-48 46 -48 112t48 111q47 45 112 45q66 0 113 -45zM194 527q21 0 35.5 14.5t14.5 35.5q0 20 -14.5 34.5t-35.5 14.5q-20 0 -34.5 -14.5t-14.5 -34.5q0 -21 14.5 -35.5
t34.5 -14.5z" />
    <glyph glyph-name="quotesingle" unicode="'" horiz-adv-x="229" 
d="M180 480h-132v200h132v-200z" />
    <glyph glyph-name="parenleft" unicode="(" horiz-adv-x="362" 
d="M332 713v-158q-63 0 -87 -45q-37 -72 -37 -177q0 -106 37 -177q24 -46 87 -46v-158q-107 0 -158 42q-38 31 -70 89q-54 108 -54 250t54 248q30 56 70 90q55 42 158 42z" />
    <glyph glyph-name="parenright" unicode=")" horiz-adv-x="362" 
d="M30 -48v158q62 0 87 46q37 77 37 177q0 98 -37 177q-11 20 -35 32.5t-52 12.5v158q103 0 158 -42q40 -35 69 -90v1q55 -105 55 -249q0 -145 -55 -250q-30 -55 -70 -89q-53 -42 -157 -42z" />
    <glyph glyph-name="asterisk" unicode="*" horiz-adv-x="205" 
d="M117 534h-30v40l-27 -28l-21 21l28 27h-40v30h40l-28 28l21 21l27 -28v39h30v-39l28 28l21 -21l-28 -28h39v-30h-39l28 -27l-21 -21l-28 28v-40z" />
    <glyph glyph-name="plus" unicode="+" horiz-adv-x="481" 
d="M162 41v110l-111 1l-1 156l112 1v114h157v-115l112 1l-3 -157h-109l-1 -112z" />
    <glyph glyph-name="comma" unicode="," horiz-adv-x="305" 
d="M183 -71h-163l100 108q-14 30 -2 66q10 24 32 39.5t49 15.5q15 0 34 -8q31 -14 45 -46q21 -54 -17 -92z" />
    <glyph glyph-name="hyphen" unicode="-" horiz-adv-x="432" 
d="M382 306v-158h-332v158h332z" />
    <glyph glyph-name="period" unicode="." horiz-adv-x="249" 
d="M126 175q38 0 64.5 -26.5t26.5 -64.5q0 -39 -26.5 -65.5t-64.5 -26.5t-65 26.5t-27 65.5q0 37 27 64t65 27z" />
    <glyph glyph-name="slash" unicode="/" horiz-adv-x="468" 
d="M185 0h-179l275 712h178z" />
    <glyph glyph-name="zero" unicode="0" horiz-adv-x="632" 
d="M317 -10q-103 0 -178 73q-73 73 -73 176v244q0 104 73 177q74 72 178 72q105 0 177 -72q74 -74 74 -177v-244q0 -104 -74 -176q-73 -73 -177 -73zM317 568q-35 0 -60 -25t-25 -60v-244q0 -35 25 -59.5t60 -24.5t59.5 24.5t24.5 59.5v244q0 35 -24.5 60t-59.5 25z" />
    <glyph glyph-name="one" unicode="1" horiz-adv-x="422" 
d="M343 0h-166v473l-52 -39l-98 134l193 144h123v-712z" />
    <glyph glyph-name="two" unicode="2" horiz-adv-x="528" 
d="M446 362l-166 -196h211v-166h-453v138l276 323q12 17 12 36q0 26 -18 44t-43 18q-20 0 -36 -11.5t-22 -30.5l-13 -38l-160 34l12 45q20 72 81 119t138 47q94 0 160 -66.5t66 -160.5q0 -75 -44 -134z" />
    <glyph glyph-name="three" unicode="3" horiz-adv-x="532" 
d="M268 -11q-100 0 -172 70q-71 71 -71 172v44h167v-44q0 -31 22 -53.5t54 -22.5t54 22.5t22 53.5t-23 52.5t-55 21.5h-44v147h44q17 0 26 3t16.5 18.5t7.5 47.5q0 20 -14.5 34.5t-33.5 14.5t-33.5 -14.5t-14.5 -34.5v-36h-167v36q0 90 63 151q64 62 152 62q90 0 152 -62
q64 -62 64 -151q0 -67 -41 -124q31 -32 49 -72q20 -46 20 -94q0 -100 -72 -172q-70 -70 -172 -70z" />
    <glyph glyph-name="four" unicode="4" horiz-adv-x="605" 
d="M477 0h-166v162h-291v115l311 435h146v-386h108v-164h-108v-162zM253 326h58v84z" />
    <glyph glyph-name="five" unicode="5" horiz-adv-x="558" 
d="M268 -8q-108 0 -184 73q-14 14 -29 34l-26 36l137 97l26 -36q28 -39 76 -39q37 0 64 26t27 62q0 37 -27 64t-64 27q-15 0 -41 -13l-16 -7l-142 39l96 357h352v-165l-223 1l-13 -50q100 -5 170 -73q77 -74 77 -180t-77 -180q-75 -73 -183 -73z" />
    <glyph glyph-name="six" unicode="6" horiz-adv-x="555" 
d="M271 -10q-102 0 -176 72q-73 73 -73 175q0 63 31 120l1 1l214 354h195l-141 -233q70 -15 124 -67q73 -73 73 -175t-73 -175q-74 -72 -175 -72zM271 320q-34 0 -58 -24.5t-24 -58.5t24 -58t58 -24t57.5 24t23.5 58q0 35 -23.5 59t-57.5 24z" />
    <glyph glyph-name="seven" unicode="7" horiz-adv-x="515" 
d="M210 0h-183l253 548h-228v164h442v-98z" />
    <glyph glyph-name="eight" unicode="8" horiz-adv-x="569" 
d="M283 -18q-105 0 -179 74q-74 72 -74 178q0 65 32 121q17 33 48 62q-30 48 -30 105q0 83 59 144q60 58 144 58q86 0 144 -58q60 -60 60 -144q0 -57 -30 -105q28 -26 48 -62q32 -56 32 -121q0 -105 -75 -178q-74 -74 -179 -74zM283 320q-35 0 -60.5 -25.5t-25.5 -60.5
q0 -36 25.5 -61.5t60.5 -25.5q36 0 61.5 25.5t25.5 61.5q0 35 -25.5 60.5t-61.5 25.5zM283 559q-14 0 -25 -11t-11 -26t11 -26t25 -11q15 0 26 11t11 26t-11 26t-26 11z" />
    <glyph glyph-name="nine" unicode="9" horiz-adv-x="553" 
d="M280 722q101 0 175 -72q73 -73 73 -175q0 -64 -31 -120l-1 -1l-214 -354h-195l141 233q-70 15 -124 67q-73 71 -73 175q0 102 73 175q74 72 176 72zM280 392q34 0 57.5 24t23.5 59q0 34 -23.5 58t-57.5 24t-58 -24t-24 -58t24 -58.5t58 -24.5z" />
    <glyph glyph-name="colon" unicode=":" horiz-adv-x="280" 
d="M140 170q37 0 63.5 -26.5t26.5 -63.5t-26.5 -63.5t-63.5 -26.5t-63.5 26.5t-26.5 63.5t26.5 63.5t63.5 26.5zM140 373q37 0 63 -26t26 -64q0 -37 -26 -63t-63 -26q-38 0 -64 26t-26 63q0 38 26 64t64 26z" />
    <glyph glyph-name="semicolon" unicode=";" horiz-adv-x="330" 
d="M191 167q37 0 63 -26t26 -63q0 -33 -19 -56l2 8q-5 -10 -14 -22l-67 -71h-162l90 97q-10 20 -10 44q0 37 26.5 63t64.5 26zM190 194q-37 0 -63.5 26t-26.5 63q0 38 26.5 64t63.5 26q38 0 64 -26t26 -64q0 -37 -26.5 -63t-63.5 -26z" />
    <glyph glyph-name="less" unicode="&#x3c;" horiz-adv-x="360" 
d="M310 261l-53 -31l53 -30v-162l-260 144v95l260 145v-161z" />
    <glyph glyph-name="equal" unicode="=" horiz-adv-x="432" 
d="M382 406v-158h-332v158h332zM382 211v-158h-332v158h332z" />
    <glyph glyph-name="greater" unicode="&#x3e;" horiz-adv-x="360" 
d="M50 201l51 29l-51 31v162l260 -145v-95l-260 -144v162z" />
    <glyph glyph-name="question" unicode="?" horiz-adv-x="430" 
d="M297 210h-160v28q0 138 91 274q0 2 1 2q18 28 14 39q-3 12 -14 17q-8 5 -14 5q-5 0 -7 -1q-11 -3 -17 -14q-4 -4 -4 -16l-1 -41h-158v43q2 51 25 93q37 66 113 86q22 7 50 7q52 0 92 -24q68 -39 88 -113q17 -66 -15 -125q-1 -2 -9 -14q-75 -120 -75 -218v-28zM220 175
q38 0 64.5 -26.5t26.5 -64.5q0 -39 -26.5 -65.5t-64.5 -26.5t-65 26.5t-27 65.5q0 37 27 64t65 27z" />
    <glyph glyph-name="at" unicode="@" horiz-adv-x="907" 
d="M708 318q-12 63 -54 113l2 -242q0 -5 11 -5q15 0 33 35q12 17 12 55q0 16 -4 44zM496 23q32 7 83 28q-25 12 -45 36q-47 -22 -92 -22q-88 0 -150 61t-62 147t62 147t150 61q50 0 91 -19h90q-74 61 -170 61q-27 0 -48 -4q-94 -16 -155.5 -88.5t-61.5 -163.5q0 -13 4 -43
q16 -90 88 -147.5t166 -57.5q29 0 50 4zM864 346q6 -30 6 -61q0 -72 -29 -135q-23 -47 -60 -77q-55 -44 -115 -44q-30 0 -56 9l88 -107q-114 -52 -175 -62h2q-36 -8 -83 -8q-48 0 -85 8q-79 19 -146 62q-68 45 -113 113q-45 67 -61 152q-7 34 -7 73q0 45 12 91l-1 -1
q17 72 65 144q49 69 117 111q77 46 154 59q45 8 82 8q43 0 83 -9q79 -16 148 -62q70 -48 113 -112q46 -69 61 -152zM442 223q22 0 38 14.5t16 35.5t-16 36t-38 15t-38 -15t-16 -36t15.5 -35.5t38.5 -14.5z" />
    <glyph glyph-name="A" unicode="A" horiz-adv-x="735" 
d="M528 0l-61 162h-200l-63 -162h-184l274 712h146l275 -712h-187zM400 332l-33 104l-34 -104h67z" />
    <glyph glyph-name="B" unicode="B" horiz-adv-x="658" 
d="M65 0v712h269q82 0 138 -58q56 -56 56 -144q0 -43 -10 -72q18 -12 36 -31l-1 1q73 -73 73 -163q0 -99 -72 -171q-74 -74 -175 -74h-314zM237 171h142q31 1 53 22t22 52q0 29 -21.5 45.5t-53.5 18.5h-142v-138zM237 479h97q9 1 15.5 11t6.5 20q0 9 -6.5 19.5t-15.5 11.5
h-97v-62z" />
    <glyph glyph-name="C" unicode="C" horiz-adv-x="740" 
d="M405 162q97 0 173 100l137 -101q-128 -171 -310 -171q-153 0 -262 109t-109 262t109 261.5t262 108.5q184 0 314 -174l-139 -102q-78 105 -175 105q-83 0 -141 -58t-58 -141t58 -141t141 -58z" />
    <glyph glyph-name="D" unicode="D" horiz-adv-x="710" 
d="M65 0v712h247q151 0 257.5 -104.5t106.5 -251.5t-106.5 -251.5t-257.5 -104.5h-247zM312 171q79 0 135.5 54.5t56.5 130.5t-56.5 130.5t-135.5 54.5h-75v-370h75z" />
    <glyph glyph-name="E" unicode="E" horiz-adv-x="607" 
d="M90 0v712h485v-170h-311v-61h272v-173h-272v-136h304v-172h-478z" />
    <glyph glyph-name="F" unicode="F" horiz-adv-x="555" 
d="M65 0v712h485v-171h-312v-61h172v-172h-172v-308h-173z" />
    <glyph glyph-name="G" unicode="G" horiz-adv-x="775" 
d="M406 -11q-154 0 -263 109.5t-109 263.5t109 263t263 109q156 0 264 -110l33 -34l-124 -108l-29 28q-61 59 -144 59q-86 0 -146.5 -60.5t-60.5 -146.5t60.5 -147t146.5 -61q83 0 144 59v88h-184v165h349v-312l-8 -12q-54 -72 -134 -112.5t-167 -40.5z" />
    <glyph glyph-name="H" unicode="H" horiz-adv-x="708" 
d="M469 0v303h-221v-303h-173v712h173v-238h221v238h174v-712h-174z" />
    <glyph glyph-name="I" unicode="I" horiz-adv-x="354" 
d="M90 0v712h174v-712h-174z" />
    <glyph glyph-name="J" unicode="J" horiz-adv-x="477" 
d="M81 712h334v-647q0 -115 -81 -196q-78 -80 -195 -80q-114 0 -236 119l142 98q57 -46 94 -46q43 0 73.5 31t30.5 74v475h-162v172z" />
    <glyph glyph-name="K" unicode="K" horiz-adv-x="789" 
d="M563 0l-238 334l-78 -74v-260h-172v712h172v-217l231 217h250l-273 -258l324 -454h-216z" />
    <glyph glyph-name="L" unicode="L" horiz-adv-x="612" 
d="M75 0v712h173v-541h338v-171h-511z" />
    <glyph glyph-name="M" unicode="M" horiz-adv-x="822" 
d="M732 0h-172v394l-149 -203l-148 203v-394h-173v712h154l167 -230l167 230h154v-712z" />
    <glyph glyph-name="N" unicode="N" horiz-adv-x="768" 
d="M520 0l-256 381v-381h-174v712h159l255 -379v379h174v-712h-158z" />
    <glyph glyph-name="O" unicode="O" horiz-adv-x="809" 
d="M404 731q153 0 262 -109t109 -262q0 -152 -109.5 -260.5t-261.5 -108.5q-153 0 -261.5 108.5t-108.5 260.5q0 154 108.5 262.5t261.5 108.5zM404 163q81 0 138.5 58t57.5 139q0 82 -57.5 141t-138.5 59t-139 -59t-58 -141q0 -81 57.5 -139t139.5 -58z" />
    <glyph glyph-name="P" unicode="P" horiz-adv-x="567" 
d="M75 0v712h263q79 0 138 -57q57 -59 57 -145q0 -81 -58 -142t-137 -61h-90v-307h-173zM338 478q8 0 14.5 10.5t6.5 21.5t-6.5 21t-14.5 10h-90v-63h90z" />
    <glyph glyph-name="Q" unicode="Q" horiz-adv-x="896" 
d="M718 168l168 -168h-244l-46 46q-87 -55 -194 -55q-152 0 -261 108.5t-109 260.5q0 154 109 262.5t261 108.5q154 0 262.5 -108.5t108.5 -262.5q0 -100 -55 -192zM430 456l159 -160q11 33 11 64q0 82 -58 141t-140 59q-81 0 -138.5 -59t-57.5 -141q0 -81 57.5 -139
t138.5 -58q30 0 65 11l-159 159z" />
    <glyph glyph-name="R" unicode="R" horiz-adv-x="703" 
d="M434 342l259 -342h-207l-236 308h-16v-308h-169v712h261q80 0 137 -57q57 -59 57 -145q0 -51 -23 -97t-63 -71zM234 542v-64h92q10 0 17 10.5t7 21.5t-7 21.5t-17 10.5h-92z" />
    <glyph glyph-name="S" unicode="S" horiz-adv-x="627" 
d="M326 -6q-37 0 -72 8q-108 23 -223 121l114 131q84 -73 144 -84q22 -5 38 -5q30 0 52 11q33 16 33 46q0 35 -97 54q-115 23 -158 49q-103 61 -103 177q0 61 37 116q34 47 92 74l-1 -1q57 27 122 27q26 0 53 -4q99 -17 205 -105l-110 -132q-51 42 -84 56t-66 14
q-26 0 -46 -10q-29 -12 -29 -35q0 -33 94 -52q3 -1 10 -2t10 -2q101 -23 135 -43h-1q110 -61 110 -181q0 -72 -38 -125q-30 -44 -95 -76q-51 -27 -126 -27z" />
    <glyph glyph-name="T" unicode="T" horiz-adv-x="531" 
d="M179 0v540h-163v172h499v-172h-163v-540h-173z" />
    <glyph glyph-name="U" unicode="U" horiz-adv-x="705" 
d="M462 712h173v-438q0 -117 -83 -200t-200 -83q-116 0 -199 83t-83 200v438h172v-438q0 -46 32.5 -79t77.5 -33q46 0 78 32.5t32 79.5v438z" />
    <glyph glyph-name="V" unicode="V" horiz-adv-x="735" 
d="M20 712h186l161 -420l163 420h185l-274 -712h-147z" />
    <glyph glyph-name="W" unicode="W" horiz-adv-x="1039" 
d="M673 0l-154 269l-153 -269h-148l-198 712h180l121 -440l127 221h143l125 -220l123 439h180l-199 -712h-147z" />
    <glyph glyph-name="X" unicode="X" horiz-adv-x="784" 
d="M551 0l-159 224l-160 -224h-212l265 372l-243 340h213l137 -191l137 191h213l-244 -340l266 -372h-213z" />
    <glyph glyph-name="Y" unicode="Y" horiz-adv-x="731" 
d="M279 0v345l-263 367h213l137 -191l137 191h212l-262 -367v-345h-174z" />
    <glyph glyph-name="Z" unicode="Z" horiz-adv-x="605" 
d="M66 0v148l268 395h-269v169h484v-159l-260 -384h261v-169h-484z" />
    <glyph glyph-name="bracketleft" unicode="[" horiz-adv-x="321" 
d="M50 0v712h221v-158h-63v-397h63v-157h-221z" />
    <glyph glyph-name="backslash" unicode="\" horiz-adv-x="466" 
d="M459 0h-178l-275 712h179z" />
    <glyph glyph-name="bracketright" unicode="]" horiz-adv-x="321" 
d="M50 0v157h63v398h-63v158h221v-713h-221z" />
    <glyph glyph-name="underscore" unicode="_" horiz-adv-x="494" 
d="M444 156v-156h-394v156h394z" />
    <glyph glyph-name="grave" unicode="`" horiz-adv-x="263" 
d="M15 679h149l84 -175h-98z" />
    <glyph glyph-name="a" unicode="a" 
d="M270 466q50 0 79 -29v21h159v-458h-159v21q-29 -29 -79 -29q-98 0 -169 68q-69 72 -69 169t69 168q71 69 169 69zM270 148q33 0 56 24t23 57t-23 57t-56 24t-56.5 -24t-23.5 -57t23.5 -57t56.5 -24z" />
    <glyph glyph-name="b" unicode="b" horiz-adv-x="572" 
d="M470 398q70 -72 70 -169t-70 -169q-68 -68 -168 -68q-41 0 -79 29v-21h-158v733h158v-295q42 28 79 28q100 0 168 -68zM302 148q33 0 56.5 24t23.5 57t-23.5 57t-56.5 24t-56 -24t-23 -57t23 -57t56 -24z" />
    <glyph glyph-name="c" unicode="c" horiz-adv-x="494" 
d="M270 -8q-101 0 -168 69q-70 70 -70 168q0 96 70 168q67 69 168 69t168 -69q16 -16 24 -28l-127 -92q-24 34 -65 34q-33 0 -57 -24t-24 -58t24 -58t57 -24q40 0 65 35l126 -94q-14 -18 -23 -27q-67 -69 -168 -69z" />
    <glyph glyph-name="d" unicode="d" horiz-adv-x="560" 
d="M349 438v295h159v-733h-159v21q-35 -29 -79 -29q-98 0 -169 68q-69 72 -69 169t69 168q71 69 169 69q40 0 79 -28zM270 148q33 0 56 24t23 57t-23 57t-56 24t-56.5 -24t-23.5 -57t23.5 -57t56.5 -24z" />
    <glyph glyph-name="e" unicode="e" horiz-adv-x="503" 
d="M254 -7h-1q-94 0 -159 70q-55 62 -61 143q-1 7 -1 21q0 27 6 53q14 62 56 110q65 71 159 71q96 0 159 -71q46 -51 57 -111q5 -26 2 -80v-7h-268v-2q0 -19 7 -32.5t18 -18.5t18 -6.5t13 -1.5q25 0 53 19q13 10 21 20l127 -63q-54 -61 -87 -81q-50 -31 -119 -33zM253 329
q-13 0 -29 -10.5t-19 -31.5l-1 -3h99l-1 3q-3 20 -19 31t-30 11z" />
    <glyph glyph-name="f" unicode="f" horiz-adv-x="403" 
d="M255 734h139l-41 -155h-96q-11 0 -11 -12v-109h114v-155h-114v-303h-158v303h-54v155h54v110q0 69 49 117.5t118 48.5z" />
    <glyph glyph-name="g" unicode="g" 
d="M270 -211q-68 0 -127 34q-20 12 -75 65l113 101q52 -44 89 -47q28 0 50 20t28 47l1 3l-3 -1l-9 -3q-47 -15 -67 -15q-48 0 -91 18q-43 16 -78 50q-34 35 -50 78q-18 42 -18 91q0 97 68 167q71 69 169 69q41 0 78 -28l3 -2v22h156v-432q0 -48 -18 -91t-52 -77
q-33 -33 -77 -51q-42 -18 -90 -18zM270 313q-34 0 -58 -24.5t-24 -58.5q0 -35 24 -59.5t58 -24.5t57.5 24.5t23.5 59.5t-23.5 59t-57.5 24z" />
    <glyph glyph-name="h" unicode="h" horiz-adv-x="537" 
d="M426 401v-1q65 -67 65 -157v-243h-158v243q0 27 -19 46.5t-46 19.5q-26 0 -45 -19.5t-19 -46.5v-243h-158v733h158v-291q34 23 64 23q94 0 158 -64z" />
    <glyph glyph-name="i" unicode="i" horiz-adv-x="310" 
d="M155 520q-38 0 -64 26.5t-26 63.5t26 63.5t64 26.5q37 0 63.5 -26.5t26.5 -63.5t-26.5 -63.5t-63.5 -26.5zM76 0v458h158v-458h-158z" />
    <glyph glyph-name="j" unicode="j" horiz-adv-x="297" 
d="M158 520q-38 0 -64.5 26.5t-26.5 63.5t26.5 63.5t64.5 26.5q37 0 63 -26.5t26 -63.5t-26 -63.5t-63 -26.5zM79 4v454h158v-447q0 -90 -64 -154q-46 -43 -163 -72l-22 155q60 17 75 29q15 16 16 35z" />
    <glyph glyph-name="k" unicode="k" horiz-adv-x="592" 
d="M359 301l225 -301h-198l-142 191l-38 -39v-152h-158v681h158v-320l107 97h214z" />
    <glyph glyph-name="l" unicode="l" horiz-adv-x="279" 
d="M214 0h-159v733h159v-733z" />
    <glyph glyph-name="m" unicode="m" horiz-adv-x="825" 
d="M713 401q66 -66 66 -158v-243h-158v243q0 27 -19 46.5t-46 19.5t-46 -19.5t-19 -46.5v-243h-158v243q0 27 -19 46.5t-46 19.5q-26 0 -45 -19.5t-19 -46.5v-243h-158v458h158v-21q7 13 26 20.5t38 7.5q79 0 144 -55q65 55 144 55q95 0 157 -64z" />
    <glyph glyph-name="n" unicode="n" horiz-adv-x="543" 
d="M433 401v-1q64 -66 64 -157v-243h-158v243q0 27 -19 46.5t-45 19.5q-27 0 -46 -19.5t-19 -46.5v-243h-158v458h158v-21q6 13 25.5 20.5t39.5 7.5q94 0 158 -64z" />
    <glyph glyph-name="o" unicode="o" horiz-adv-x="543" 
d="M438 398q70 -72 70 -169t-70 -169q-69 -69 -167 -69t-169 69q-69 72 -69 169t69 168q71 69 169 69q99 0 167 -68zM271 149q33 0 56 23.5t23 56.5t-23 56t-56 23q-34 0 -57 -23t-23 -56t23 -56.5t57 -23.5z" />
    <glyph glyph-name="p" unicode="p" 
d="M452 398q70 -72 70 -169t-70 -169q-68 -68 -168 -68q-37 0 -80 29v-232h-158v669h158v-21q40 29 80 29q100 0 168 -68zM284 148q33 0 56.5 24t23.5 57t-23.5 57t-56.5 24t-56.5 -24t-23.5 -57t23.5 -57t56.5 -24z" />
    <glyph glyph-name="q" unicode="q" 
d="M270 466q41 0 79 -29v21h159v-669h-159v232q-35 -29 -79 -29q-98 0 -169 68q-69 72 -69 169t69 168q71 69 169 69zM270 148q33 0 56 24t23 57t-23 57t-56 24t-56.5 -24t-23.5 -57t23.5 -57t56.5 -24z" />
    <glyph glyph-name="r" unicode="r" horiz-adv-x="379" 
d="M223 458v-26q65 34 147 34l-39 -158q-44 0 -76 -19.5t-32 -47.5v-241h-158v458h158z" />
    <glyph glyph-name="s" unicode="s" horiz-adv-x="429" 
d="M216 -11q-19 0 -37 3q-72 11 -149 63l83 113q44 -18 81 -26t51 4q6 11 -10 16t-58.5 12.5t-75.5 20.5q-65 25 -65 113q0 49 31 91q28 36 72 54q35 15 74 15q23 0 40 -4q30 -6 52.5 -16.5t79.5 -42.5l-77 -111l-12 5q-11 5 -26 11t-30.5 10.5t-28 4t-15.5 -8.5
q-4 -11 13.5 -16t52 -10t53.5 -13q34 -14 55 -45q25 -37 25 -82q0 -47 -26 -85q-26 -37 -65 -56q-42 -20 -88 -20z" />
    <glyph glyph-name="t" unicode="t" horiz-adv-x="395" 
d="M239 0q-69 0 -118 48.5t-49 118.5v144h-55v147h55v143h158v-143h114v-147h-114v-142q0 -14 11 -14h96l41 -155h-139z" />
    <glyph glyph-name="u" unicode="u" horiz-adv-x="550" 
d="M123 52q-63 63 -63 150v256h158v-256q0 -22 17 -38t40 -16t40 16t17 38v256h158v-256q0 -86 -64 -150q-63 -60 -151 -60q-87 0 -152 60z" />
    <glyph glyph-name="v" unicode="v" horiz-adv-x="549" 
d="M358 458h170l-186 -458h-134l-187 458h171l83 -202z" />
    <glyph glyph-name="w" unicode="w" horiz-adv-x="686" 
d="M571 0h-133l-95 170l-95 -170h-133l-87 458h158l36 -192l59 100h125l58 -100l36 192h158z" />
    <glyph glyph-name="x" unicode="x" horiz-adv-x="649" 
d="M609 458l-182 -219l201 -239h-205l-99 117l-98 -117h-205l200 239l-183 219h206l80 -95l81 95h204z" />
    <glyph glyph-name="y" unicode="y" horiz-adv-x="549" 
d="M249 -211h-156l103 254l-169 415h159l89 -216l87 216h159z" />
    <glyph glyph-name="z" unicode="z" horiz-adv-x="427" 
d="M24 458h373v-127l-163 -192h163v-139h-372v127l166 192h-167v139z" />
    <glyph glyph-name="braceleft" unicode="{" horiz-adv-x="383" 
d="M30 269l1 129q26 9 25 5q9 17 9 48q0 56 41 130q30 56 69 90q53 42 158 42v-158q-63 0 -87 -46l1 1q-24 -46 -24 -59q0 -53 -33 -119q33 -64 33 -118q0 -14 24 -58h-1q24 -46 87 -46v-158q-104 0 -157 43v-1q-40 35 -70 90q-41 92 -41 130q0 30 -9 46q2 -6 -26 9z" />
    <glyph glyph-name="bar" unicode="|" horiz-adv-x="296" 
d="M75 -131v927h146v-927h-146z" />
    <glyph glyph-name="braceright" unicode="}" horiz-adv-x="383" 
d="M353 397l-2 -129q-19 -11 -25 -8q-8 -19 -8 -46q0 -32 -15.5 -72t-26.5 -58q-34 -61 -70 -90q-53 -42 -156 -42v158q63 0 86 46q24 48 24 58q0 56 31 118q-31 66 -31 119q0 11 -24 59q-10 20 -34 32.5t-52 12.5v158q104 0 157 -42q40 -33 69 -90q42 -79 42 -130
q0 -28 8 -46q1 2 27 -8z" />
    <glyph glyph-name="exclamdown" unicode="&#xa1;" horiz-adv-x="333" 
d="M86 252h161v-500h-161v500zM166 289q-38 0 -64.5 26.5t-26.5 64.5q0 39 26.5 65.5t64.5 26.5t65 -26.5t27 -65.5q0 -37 -27 -64t-65 -27z" />
    <glyph glyph-name="sterling" unicode="&#xa3;" horiz-adv-x="487" 
d="M313 330l-3 -172h121v-158h-406l39 158q41 0 66 24t25 52v96h-55v158h55v25q0 113 75 163h-1q25 16 62 24.5t66 9.5t86 1l-40 -158q-46 0 -68 -9t-22 -31v-25h114v-158h-114z" />
    <glyph glyph-name="yen" unicode="&#xa5;" horiz-adv-x="683" 
d="M422 266h117v-130h-117v-136h-162v136h-116v130h116v37h-116v132h69l-197 278h198l128 -178l127 178h198l-198 -278h70v-132h-117v-37z" />
    <glyph glyph-name="dieresis" unicode="&#xa8;" horiz-adv-x="431" 
d="M319 515q-34 0 -58.5 24.5t-24.5 58.5t24.5 58.5t58.5 24.5t58 -24.5t24 -58.5t-24 -58.5t-58 -24.5zM112 515q-34 0 -58 24.5t-24 58.5t24 58.5t58 24.5t58.5 -24.5t24.5 -58.5t-24.5 -58.5t-58.5 -24.5z" />
    <glyph glyph-name="macron" unicode="&#xaf;" horiz-adv-x="450" 
d="M50 554v99h350v-99h-350z" />
    <glyph glyph-name="degree" unicode="&#xb0;" horiz-adv-x="276" 
d="M138 681q44 0 74 -29.5t30 -72.5t-30.5 -73t-73.5 -30t-73.5 30t-30.5 73t30.5 72.5t73.5 29.5zM138 595q-15 0 -15 -16t15 -16q16 0 16 16t-16 16z" />
    <glyph glyph-name="acute" unicode="&#xb4;" horiz-adv-x="262" 
d="M14 505l84 175h150l-136 -175h-98z" />
    <glyph glyph-name="cedilla" unicode="&#xb8;" horiz-adv-x="276" 
d="M156 92h104l-86 -182h-158z" />
    <glyph glyph-name="questiondown" unicode="&#xbf;" horiz-adv-x="429" 
d="M133 250h159v-28q0 -139 -90 -274v-1l-1 -1q-18 -28 -14 -39q3 -10 13 -17q8 -5 14 -5q2 0 4.5 0.5t3.5 0.5q11 3 17 14q3 9 3 16l1 41h159l-1 -42q0 -51 -24 -93q-39 -67 -113 -87q-30 -7 -50 -7q-48 0 -93 24q-67 39 -87 113q-18 68 15 125q4 8 8 14q76 116 76 218v28z
M211 465q37 0 64 -26.5t27 -64.5q0 -39 -26.5 -65.5t-64.5 -26.5t-65 26.5t-27 65.5q0 37 27 64t65 27z" />
    <glyph glyph-name="Agrave" unicode="&#xc0;" horiz-adv-x="735" 
d="M528 0l-61 162h-200l-63 -162h-184l274 712h146l275 -712h-187zM400 332l-33 104l-34 -104h67zM181 933h149l84 -175h-98z" />
    <glyph glyph-name="Aacute" unicode="&#xc1;" horiz-adv-x="735" 
d="M528 0l-61 162h-200l-63 -162h-184l274 712h146l275 -712h-187zM400 332l-33 104l-34 -104h67zM322 759l84 175h150l-136 -175h-98z" />
    <glyph glyph-name="Acircumflex" unicode="&#xc2;" horiz-adv-x="735" 
d="M528 0l-61 162h-200l-63 -162h-184l274 712h146l275 -712h-187zM400 332l-33 104l-34 -104h67zM184 759l133 175h100l133 -175h-121l-62 78l-61 -78h-122z" />
    <glyph glyph-name="Atilde" unicode="&#xc3;" horiz-adv-x="735" 
d="M528 0l-61 162h-200l-63 -162h-184l274 712h146l275 -712h-187zM400 332l-33 104l-34 -104h67zM293 767l-88 56l14 22q17 26 37 41q31 23 70 23q22 0 44 -12l23 -12q5 -3 20 -11q8 3 16 16l14 22l87 -56l-14 -22q-41 -64 -107 -64q-30 0 -69 26q-1 0 -3 2l-14 7
q-6 0 -16 -16z" />
    <glyph glyph-name="Adieresis" unicode="&#xc4;" horiz-adv-x="735" 
d="M528 0l-61 162h-200l-63 -162h-184l274 712h146l275 -712h-187zM400 332l-33 104l-34 -104h67zM471 769q-34 0 -58.5 24.5t-24.5 58.5t24.5 58.5t58.5 24.5t58 -24.5t24 -58.5t-24 -58.5t-58 -24.5zM264 769q-34 0 -58 24.5t-24 58.5t24 58.5t58 24.5t58.5 -24.5
t24.5 -58.5t-24.5 -58.5t-58.5 -24.5z" />
    <glyph glyph-name="Aring" unicode="&#xc5;" horiz-adv-x="735" 
d="M528 0l-61 162h-200l-63 -162h-184l274 712h146l275 -712h-187zM400 332l-33 104l-34 -104h67zM366 967q44 0 74 -29.5t30 -72.5t-30.5 -73t-73.5 -30t-73.5 30t-30.5 73t30.5 72.5t73.5 29.5zM366 881q-15 0 -15 -16t15 -16q16 0 16 16t-16 16z" />
    <glyph glyph-name="AE" unicode="&#xc6;" horiz-adv-x="876" 
d="M844 712v-170h-311v-77h272v-172h-272v-121h304v-172h-478v179h-85l-70 -179h-184l274 712h550zM306 351h53l6 193z" />
    <glyph glyph-name="Ccedilla" unicode="&#xc7;" horiz-adv-x="750" 
d="M404 162q47 0 96 30.5t91 85.5l138 -101q-60 -78 -131.5 -125.5t-143.5 -57.5l-54 -113h-210l100 128q-113 36 -185 133t-72 219q0 153 109 261.5t262 108.5q88 0 173 -49t152 -138l-139 -102q-42 56 -90.5 87t-95.5 31q-83 0 -141 -58t-58 -141t58 -141t141 -58z" />
    <glyph glyph-name="Egrave" unicode="&#xc8;" horiz-adv-x="607" 
d="M90 0v712h485v-170h-311v-61h272v-173h-272v-136h304v-172h-478zM127 933h149l84 -175h-98z" />
    <glyph glyph-name="Eacute" unicode="&#xc9;" horiz-adv-x="607" 
d="M90 0v712h485v-170h-311v-61h272v-173h-272v-136h304v-172h-478zM290 759l84 175h150l-136 -175h-98z" />
    <glyph glyph-name="Ecircumflex" unicode="&#xca;" horiz-adv-x="607" 
d="M90 0v712h485v-170h-311v-61h272v-173h-272v-136h304v-172h-478zM150 759l133 175h100l133 -175h-121l-62 78l-61 -78h-122z" />
    <glyph glyph-name="Edieresis" unicode="&#xcb;" horiz-adv-x="607" 
d="M90 0v712h485v-170h-311v-61h272v-173h-272v-136h304v-172h-478zM436 769q-34 0 -58.5 24.5t-24.5 58.5t24.5 58.5t58.5 24.5t58 -24.5t24 -58.5t-24 -58.5t-58 -24.5zM229 769q-34 0 -58 24.5t-24 58.5t24 58.5t58 24.5t58.5 -24.5t24.5 -58.5t-24.5 -58.5t-58.5 -24.5z
" />
    <glyph glyph-name="Igrave" unicode="&#xcc;" horiz-adv-x="346" 
d="M92 0v712h174v-712h-174zM-8 933h149l84 -175h-98z" />
    <glyph glyph-name="Iacute" unicode="&#xcd;" horiz-adv-x="319" 
d="M80 0v712h174v-712h-174zM122 759l84 175h150l-136 -175h-98z" />
    <glyph glyph-name="Icircumflex" unicode="&#xce;" horiz-adv-x="366" 
d="M96 0v712h174v-712h-174zM0 759l133 175h100l133 -175h-121l-62 78l-61 -78h-122z" />
    <glyph glyph-name="Idieresis" unicode="&#xcf;" horiz-adv-x="337" 
d="M78 0v712h174v-712h-174zM272 769q-34 0 -58.5 24.5t-24.5 58.5t24.5 58.5t58.5 24.5t58 -24.5t24 -58.5t-24 -58.5t-58 -24.5zM65 769q-34 0 -58 24.5t-24 58.5t24 58.5t58 24.5t58.5 -24.5t24.5 -58.5t-24.5 -58.5t-58.5 -24.5z" />
    <glyph glyph-name="Eth" unicode="&#xd0;" horiz-adv-x="737" 
d="M92 712h246q151 0 258 -104.5t107 -251.5t-107 -251.5t-258 -104.5h-246v275h-117v162h117v275zM264 171h74q80 0 136.5 54.5t56.5 130.5t-56.5 130.5t-136.5 54.5h-74v-104h115v-162h-115v-104z" />
    <glyph glyph-name="Ntilde" unicode="&#xd1;" horiz-adv-x="768" 
d="M520 0l-256 381v-381h-174v712h159l255 -379v379h174v-712h-158zM310 767l-88 56l14 22q17 26 37 41q31 23 70 23q22 0 44 -12l23 -12q5 -3 20 -11q8 3 16 16l14 22l87 -56l-14 -22q-41 -64 -107 -64q-30 0 -69 26q-1 0 -3 2l-14 7q-6 0 -16 -16z" />
    <glyph glyph-name="Ograve" unicode="&#xd2;" horiz-adv-x="809" 
d="M404 731q153 0 262 -109t109 -262q0 -152 -109.5 -260.5t-261.5 -108.5q-153 0 -261.5 108.5t-108.5 260.5q0 154 108.5 262.5t261.5 108.5zM404 163q81 0 138.5 58t57.5 139q0 82 -57.5 141t-138.5 59t-139 -59t-58 -141q0 -81 57.5 -139t139.5 -58zM225 933h149
l84 -175h-98z" />
    <glyph glyph-name="Oacute" unicode="&#xd3;" horiz-adv-x="809" 
d="M404 731q153 0 262 -109t109 -262q0 -152 -109.5 -260.5t-261.5 -108.5q-153 0 -261.5 108.5t-108.5 260.5q0 154 108.5 262.5t261.5 108.5zM404 163q81 0 138.5 58t57.5 139q0 82 -57.5 141t-138.5 59t-139 -59t-58 -141q0 -81 57.5 -139t139.5 -58zM355 759l84 175h150
l-136 -175h-98z" />
    <glyph glyph-name="Ocircumflex" unicode="&#xd4;" horiz-adv-x="809" 
d="M404 731q153 0 262 -109t109 -262q0 -152 -109.5 -260.5t-261.5 -108.5q-153 0 -261.5 108.5t-108.5 260.5q0 154 108.5 262.5t261.5 108.5zM404 163q81 0 138.5 58t57.5 139q0 82 -57.5 141t-138.5 59t-139 -59t-58 -141q0 -81 57.5 -139t139.5 -58zM225 759l133 175
h100l133 -175h-121l-62 78l-61 -78h-122z" />
    <glyph glyph-name="Otilde" unicode="&#xd5;" horiz-adv-x="809" 
d="M404 731q153 0 262 -109t109 -262q0 -152 -109.5 -260.5t-261.5 -108.5q-153 0 -261.5 108.5t-108.5 260.5q0 154 108.5 262.5t261.5 108.5zM404 163q81 0 138.5 58t57.5 139q0 82 -57.5 141t-138.5 59t-139 -59t-58 -141q0 -81 57.5 -139t139.5 -58zM333 767l-88 56
l14 22q17 26 37 41q31 23 70 23q22 0 44 -12l23 -12q5 -3 20 -11q8 3 16 16l14 22l87 -56l-14 -22q-41 -64 -107 -64q-30 0 -69 26q-1 0 -3 2l-14 7q-6 0 -16 -16z" />
    <glyph glyph-name="Odieresis" unicode="&#xd6;" horiz-adv-x="809" 
d="M404 731q153 0 262 -109t109 -262q0 -152 -109.5 -260.5t-261.5 -108.5q-153 0 -261.5 108.5t-108.5 260.5q0 154 108.5 262.5t261.5 108.5zM404 163q81 0 138.5 58t57.5 139q0 82 -57.5 141t-138.5 59t-139 -59t-58 -141q0 -81 57.5 -139t139.5 -58zM508 769
q-34 0 -58.5 24.5t-24.5 58.5t24.5 58.5t58.5 24.5t58 -24.5t24 -58.5t-24 -58.5t-58 -24.5zM301 769q-34 0 -58 24.5t-24 58.5t24 58.5t58 24.5t58.5 -24.5t24.5 -58.5t-24.5 -58.5t-58.5 -24.5z" />
    <glyph glyph-name="multiply" unicode="&#xd7;" horiz-adv-x="446" 
d="M50 176l61 61l-61 62l110 111l63 -62l60 61l113 -109l-63 -63l63 -62l-113 -109l-60 61l-63 -62z" />
    <glyph glyph-name="Oslash" unicode="&#xd8;" horiz-adv-x="829" 
d="M671 733l116 -114l-53 -57q61 -96 61 -202q0 -152 -108.5 -260.5t-262.5 -108.5q-106 0 -202 61l-71 -72l-117 117l73 73q-53 88 -53 190q0 153 108.5 261.5t261.5 108.5q101 0 192 -53zM227 360q0 -33 10 -60l249 248q-27 11 -62 11q-81 0 -139 -58.5t-58 -140.5z
M424 163q82 0 140 58t58 139q0 39 -15 76l-257 -258q36 -15 74 -15z" />
    <glyph glyph-name="Ugrave" unicode="&#xd9;" horiz-adv-x="705" 
d="M462 712h173v-438q0 -117 -83 -200t-200 -83q-116 0 -199 83t-83 200v438h172v-438q0 -46 32.5 -79t77.5 -33q46 0 78 32.5t32 79.5v438zM172 933h149l84 -175h-98z" />
    <glyph glyph-name="Uacute" unicode="&#xda;" horiz-adv-x="705" 
d="M462 712h173v-438q0 -117 -83 -200t-200 -83q-116 0 -199 83t-83 200v438h172v-438q0 -46 32.5 -79t77.5 -33q46 0 78 32.5t32 79.5v438zM306 759l84 175h150l-136 -175h-98z" />
    <glyph glyph-name="Ucircumflex" unicode="&#xdb;" horiz-adv-x="705" 
d="M462 712h173v-438q0 -117 -83 -200t-200 -83q-116 0 -199 83t-83 200v438h172v-438q0 -46 32.5 -79t77.5 -33q46 0 78 32.5t32 79.5v438zM168 759l133 175h100l133 -175h-121l-62 78l-61 -78h-122z" />
    <glyph glyph-name="Udieresis" unicode="&#xdc;" horiz-adv-x="705" 
d="M462 712h173v-438q0 -117 -83 -200t-200 -83q-116 0 -199 83t-83 200v438h172v-438q0 -46 32.5 -79t77.5 -33q46 0 78 32.5t32 79.5v438zM456 769q-34 0 -58.5 24.5t-24.5 58.5t24.5 58.5t58.5 24.5t58 -24.5t24 -58.5t-24 -58.5t-58 -24.5zM249 769q-34 0 -58 24.5
t-24 58.5t24 58.5t58 24.5t58.5 -24.5t24.5 -58.5t-24.5 -58.5t-58.5 -24.5z" />
    <glyph glyph-name="Yacute" unicode="&#xdd;" horiz-adv-x="731" 
d="M279 0v345l-263 367h213l137 -191l137 191h212l-262 -367v-345h-174zM328 759l84 175h150l-136 -175h-98z" />
    <glyph glyph-name="Thorn" unicode="&#xde;" horiz-adv-x="567" 
d="M476 494v-1q57 -59 57 -138t-57.5 -136.5t-137.5 -57.5h-89v-161h-174v712h174v-162h89q80 0 138 -56zM249 333h89q9 0 15 6.5t6 15.5q0 10 -6 17t-15 7h-89v-46z" />
    <glyph glyph-name="germandbls" unicode="&#xdf;" horiz-adv-x="565" 
d="M229 0h-164v520q0 42 19 80q16 34 47 63q65 57 147 57q84 0 147 -57q31 -29 48 -63q19 -41 19 -80q0 -41 -17 -80l-14 -27q72 -75 72 -171q0 -99 -72 -171q-72 -70 -172 -70h-28v164h28q33 0 56.5 22.5t23.5 54.5t-23.5 54.5t-56.5 22.5h-28v152h28q15 0 26.5 16.5
t11.5 32.5q0 13 -15.5 24.5t-33.5 11.5q-17 0 -33 -11.5t-16 -24.5v-520z" />
    <glyph glyph-name="agrave" unicode="&#xe0;" 
d="M270 466q50 0 79 -29v21h159v-458h-159v21q-29 -29 -79 -29q-98 0 -169 68q-69 72 -69 169t69 168q71 69 169 69zM270 148q33 0 56 24t23 57t-23 57t-56 24t-56.5 -24t-23.5 -57t23.5 -57t56.5 -24zM83 684h149l84 -175h-98z" />
    <glyph glyph-name="aacute" unicode="&#xe1;" 
d="M270 466q50 0 79 -29v21h159v-458h-159v21q-29 -29 -79 -29q-98 0 -169 68q-69 72 -69 169t69 168q71 69 169 69zM270 148q33 0 56 24t23 57t-23 57t-56 24t-56.5 -24t-23.5 -57t23.5 -57t56.5 -24zM218 505l84 175h150l-136 -175h-98z" />
    <glyph glyph-name="acircumflex" unicode="&#xe2;" 
d="M270 466q50 0 79 -29v21h159v-458h-159v21q-29 -29 -79 -29q-98 0 -169 68q-69 72 -69 169t69 168q71 69 169 69zM270 148q33 0 56 24t23 57t-23 57t-56 24t-56.5 -24t-23.5 -57t23.5 -57t56.5 -24zM92 505l133 175h100l133 -175h-121l-62 78l-61 -78h-122z" />
    <glyph glyph-name="atilde" unicode="&#xe3;" 
d="M270 466q50 0 79 -29v21h159v-458h-159v21q-29 -29 -79 -29q-98 0 -169 68q-69 72 -69 169t69 168q71 69 169 69zM270 148q33 0 56 24t23 57t-23 57t-56 24t-56.5 -24t-23.5 -57t23.5 -57t56.5 -24zM205 513l-88 56l14 22q17 26 37 41q31 23 70 23q22 0 44 -12l23 -12
q5 -3 20 -11q8 3 16 16l14 22l87 -56l-14 -22q-41 -64 -107 -64q-30 0 -69 26q-1 0 -3 2l-14 7q-6 0 -16 -16z" />
    <glyph glyph-name="adieresis" unicode="&#xe4;" 
d="M270 466q50 0 79 -29v21h159v-458h-159v21q-29 -29 -79 -29q-98 0 -169 68q-69 72 -69 169t69 168q71 69 169 69zM270 148q33 0 56 24t23 57t-23 57t-56 24t-56.5 -24t-23.5 -57t23.5 -57t56.5 -24zM385 515q-34 0 -58.5 24.5t-24.5 58.5t24.5 58.5t58.5 24.5t58 -24.5
t24 -58.5t-24 -58.5t-58 -24.5zM178 515q-34 0 -58 24.5t-24 58.5t24 58.5t58 24.5t58.5 -24.5t24.5 -58.5t-24.5 -58.5t-58.5 -24.5z" />
    <glyph glyph-name="aring" unicode="&#xe5;" 
d="M270 466q50 0 79 -29v21h159v-458h-159v21q-29 -29 -79 -29q-98 0 -169 68q-69 72 -69 169t69 168q71 69 169 69zM270 148q33 0 56 24t23 57t-23 57t-56 24t-56.5 -24t-23.5 -57t23.5 -57t56.5 -24zM274 713q44 0 74 -29.5t30 -72.5t-30.5 -73t-73.5 -30t-73.5 30
t-30.5 73t30.5 72.5t73.5 29.5zM274 627q-15 0 -15 -16t15 -16q16 0 16 16t-16 16z" />
    <glyph glyph-name="ae" unicode="&#xe6;" horiz-adv-x="820" 
d="M787 279q6 -41 1 -89h-264q1 -27 18.5 -41.5t34.5 -14.5q18 0 35 10t24 18t9 11l133 -63q-38 -53 -87 -84q-51 -32 -107 -33q-42 0 -76 29v-22h-159v21q-38 -29 -79 -29q-98 0 -169 68q-69 72 -69 169t69 168q71 69 169 69q42 0 79 -29v21h159v-21q32 24 63 24
q94 0 159 -71q45 -49 57 -111zM270 148q33 0 56 24t23 57t-23 57t-56 24t-56.5 -24t-23.5 -57t23.5 -57t56.5 -24zM525 286h92q-3 19 -18 29.5t-28 10.5t-28 -10.5t-18 -29.5z" />
    <glyph glyph-name="ccedilla" unicode="&#xe7;" horiz-adv-x="494" 
d="M270 147q40 0 65 35l126 -94q-14 -18 -23 -27q-56 -56 -136 -67l-40 -84h-158l77 99q-43 16 -79 52q-70 70 -70 168q0 96 70 168q67 69 168 69t168 -69q16 -16 24 -28l-127 -92q-24 34 -65 34q-33 0 -57 -24t-24 -58t24 -58t57 -24z" />
    <glyph glyph-name="egrave" unicode="&#xe8;" horiz-adv-x="503" 
d="M254 -7h-1q-94 0 -159 70q-55 62 -61 143q-1 7 -1 21q0 27 6 53q14 62 56 110q65 71 159 71q96 0 159 -71q46 -51 57 -111q5 -26 2 -80v-7h-268v-2q0 -19 7 -32.5t18 -18.5t18 -6.5t13 -1.5q25 0 53 19q13 10 21 20l127 -63q-54 -61 -87 -81q-50 -31 -119 -33zM253 329
q-13 0 -29 -10.5t-19 -31.5l-1 -3h99l-1 3q-3 20 -19 31t-30 11zM67 679h149l84 -175h-98z" />
    <glyph glyph-name="eacute" unicode="&#xe9;" horiz-adv-x="503" 
d="M254 -7h-1q-94 0 -159 70q-55 62 -61 143q-1 7 -1 21q0 27 6 53q14 62 56 110q65 71 159 71q96 0 159 -71q46 -51 57 -111q5 -26 2 -80v-7h-268v-2q0 -19 7 -32.5t18 -18.5t18 -6.5t13 -1.5q25 0 53 19q13 10 21 20l127 -63q-54 -61 -87 -81q-50 -31 -119 -33zM253 329
q-13 0 -29 -10.5t-19 -31.5l-1 -3h99l-1 3q-3 20 -19 31t-30 11zM208 505l84 175h150l-136 -175h-98z" />
    <glyph glyph-name="ecircumflex" unicode="&#xea;" horiz-adv-x="503" 
d="M254 -7h-1q-94 0 -159 70q-55 62 -61 143q-1 7 -1 21q0 27 6 53q14 62 56 110q65 71 159 71q96 0 159 -71q46 -51 57 -111q5 -26 2 -80v-7h-268v-2q0 -19 7 -32.5t18 -18.5t18 -6.5t13 -1.5q25 0 53 19q13 10 21 20l127 -63q-54 -61 -87 -81q-50 -31 -119 -33zM253 329
q-13 0 -29 -10.5t-19 -31.5l-1 -3h99l-1 3q-3 20 -19 31t-30 11zM69 505l133 175h100l133 -175h-121l-62 78l-61 -78h-122z" />
    <glyph glyph-name="edieresis" unicode="&#xeb;" horiz-adv-x="503" 
d="M254 -7h-1q-94 0 -159 70q-55 62 -61 143q-1 7 -1 21q0 27 6 53q14 62 56 110q65 71 159 71q96 0 159 -71q46 -51 57 -111q5 -26 2 -80v-7h-268v-2q0 -19 7 -32.5t18 -18.5t18 -6.5t13 -1.5q25 0 53 19q13 10 21 20l127 -63q-54 -61 -87 -81q-50 -31 -119 -33zM253 329
q-13 0 -29 -10.5t-19 -31.5l-1 -3h99l-1 3q-3 20 -19 31t-30 11zM356 515q-34 0 -58.5 24.5t-24.5 58.5t24.5 58.5t58.5 24.5t58 -24.5t24 -58.5t-24 -58.5t-58 -24.5zM149 515q-34 0 -58 24.5t-24 58.5t24 58.5t58 24.5t58.5 -24.5t24.5 -58.5t-24.5 -58.5t-58.5 -24.5z
" />
    <glyph glyph-name="igrave" unicode="&#xec;" horiz-adv-x="387" 
d="M149 0v458h158v-458h-158zM39 679h149l84 -175h-98z" />
    <glyph glyph-name="iacute" unicode="&#xed;" horiz-adv-x="367" 
d="M80 0v458h158v-458h-158zM113 505l84 175h150l-136 -175h-98z" />
    <glyph glyph-name="icircumflex" unicode="&#xee;" horiz-adv-x="366" 
d="M106 0v458h158v-458h-158zM0 505l133 175h100l133 -175h-121l-62 78l-61 -78h-122z" />
    <glyph glyph-name="idieresis" unicode="&#xef;" horiz-adv-x="371" 
d="M105 0v458h158v-458h-158zM289 515q-34 0 -58.5 24.5t-24.5 58.5t24.5 58.5t58.5 24.5t58 -24.5t24 -58.5t-24 -58.5t-58 -24.5zM82 515q-34 0 -58 24.5t-24 58.5t24 58.5t58 24.5t58.5 -24.5t24.5 -58.5t-24.5 -58.5t-58.5 -24.5z" />
    <glyph glyph-name="eth" unicode="&#xf0;" horiz-adv-x="522" 
d="M488 256q0 -14 -0.5 -25t-0.5 -12q0 -97 -67 -166q-68 -68 -165 -68q-96 0 -166 68q-68 70 -68 166q0 97 68 165q71 69 166 69q2 0 6 -1.5t6 -1.5q-23 29 -41 48l-51 -50l-65 67l50 49l-7 7l-31 30l108 111l31 -31l9 -9l49 48l65 -67l-48 -47q58 -61 86 -108
q36 -58 50 -113q16 -57 16 -129zM255 139q31 0 53.5 21.5t24.5 52.5v17q-4 29 -26 48.5t-52 19.5q-33 0 -56.5 -23t-23.5 -56t23.5 -56.5t56.5 -23.5z" />
    <glyph glyph-name="ntilde" unicode="&#xf1;" horiz-adv-x="543" 
d="M433 401v-1q64 -66 64 -157v-243h-158v243q0 27 -19 46.5t-45 19.5q-27 0 -46 -19.5t-19 -46.5v-243h-158v458h158v-21q6 13 25.5 20.5t39.5 7.5q94 0 158 -64zM202 513l-88 56l14 22q17 26 37 41q31 23 70 23q22 0 44 -12l23 -12q5 -3 20 -11q8 3 16 16l14 22l87 -56
l-14 -22q-41 -64 -107 -64q-30 0 -69 26q-1 0 -3 2l-14 7q-6 0 -16 -16z" />
    <glyph glyph-name="ograve" unicode="&#xf2;" horiz-adv-x="543" 
d="M438 398q70 -72 70 -169t-70 -169q-69 -69 -167 -69t-169 69q-69 72 -69 169t69 168q71 69 169 69q99 0 167 -68zM271 149q33 0 56 23.5t23 56.5t-23 56t-56 23q-34 0 -57 -23t-23 -56t23 -56.5t57 -23.5zM84 679h149l84 -175h-98z" />
    <glyph glyph-name="oacute" unicode="&#xf3;" horiz-adv-x="543" 
d="M438 398q70 -72 70 -169t-70 -169q-69 -69 -167 -69t-169 69q-69 72 -69 169t69 168q71 69 169 69q99 0 167 -68zM271 149q33 0 56 23.5t23 56.5t-23 56t-56 23q-34 0 -57 -23t-23 -56t23 -56.5t57 -23.5zM217 505l84 175h150l-136 -175h-98z" />
    <glyph glyph-name="ocircumflex" unicode="&#xf4;" horiz-adv-x="543" 
d="M438 398q70 -72 70 -169t-70 -169q-69 -69 -167 -69t-169 69q-69 72 -69 169t69 168q71 69 169 69q99 0 167 -68zM271 149q33 0 56 23.5t23 56.5t-23 56t-56 23q-34 0 -57 -23t-23 -56t23 -56.5t57 -23.5zM88 505l133 175h100l133 -175h-121l-62 78l-61 -78h-122z" />
    <glyph glyph-name="otilde" unicode="&#xf5;" horiz-adv-x="543" 
d="M438 398q70 -72 70 -169t-70 -169q-69 -69 -167 -69t-169 69q-69 72 -69 169t69 168q71 69 169 69q99 0 167 -68zM271 149q33 0 56 23.5t23 56.5t-23 56t-56 23q-34 0 -57 -23t-23 -56t23 -56.5t57 -23.5zM195 513l-88 56l14 22q17 26 37 41q31 23 70 23q22 0 44 -12
l23 -12q5 -3 20 -11q8 3 16 16l14 22l87 -56l-14 -22q-41 -64 -107 -64q-30 0 -69 26q-1 0 -3 2l-14 7q-6 0 -16 -16z" />
    <glyph glyph-name="odieresis" unicode="&#xf6;" horiz-adv-x="543" 
d="M438 398q70 -72 70 -169t-70 -169q-69 -69 -167 -69t-169 69q-69 72 -69 169t69 168q71 69 169 69q99 0 167 -68zM271 149q33 0 56 23.5t23 56.5t-23 56t-56 23q-34 0 -57 -23t-23 -56t23 -56.5t57 -23.5zM375 515q-34 0 -58.5 24.5t-24.5 58.5t24.5 58.5t58.5 24.5
t58 -24.5t24 -58.5t-24 -58.5t-58 -24.5zM168 515q-34 0 -58 24.5t-24 58.5t24 58.5t58 24.5t58.5 -24.5t24.5 -58.5t-24.5 -58.5t-58.5 -24.5z" />
    <glyph glyph-name="divide" unicode="&#xf7;" horiz-adv-x="359" 
d="M179 164q37 0 63.5 -26.5t26.5 -63.5t-26.5 -63t-63.5 -26t-63 26t-26 63t26 63.5t63 26.5zM179 550q37 0 63.5 -26t26.5 -63q0 -38 -26.5 -64.5t-63.5 -26.5t-63 26.5t-26 64.5q0 37 26 63t63 26zM345 346v-158h-331v158h331z" />
    <glyph glyph-name="oslash" unicode="&#xf8;" horiz-adv-x="609" 
d="M557 433l-61 -62q48 -63 48 -142q0 -97 -70 -169q-69 -69 -167 -69q-77 0 -141 45l-60 -61l-51 50l60 61q-46 64 -46 143q0 97 69 168q71 69 169 69q77 0 138 -44l61 61zM227 229q0 -14 4 -25l99 101q-12 3 -23 3q-34 0 -57 -23t-23 -56zM386 229q0 12 -5 25l-99 -101
q9 -4 25 -4q33 0 56 23.5t23 56.5z" />
    <glyph glyph-name="ugrave" unicode="&#xf9;" horiz-adv-x="550" 
d="M123 52q-63 63 -63 150v256h158v-256q0 -22 17 -38t40 -16t40 16t17 38v256h158v-256q0 -86 -64 -150q-63 -60 -151 -60q-87 0 -152 60zM88 679h149l84 -175h-98z" />
    <glyph glyph-name="uacute" unicode="&#xfa;" horiz-adv-x="550" 
d="M123 52q-63 63 -63 150v256h158v-256q0 -22 17 -38t40 -16t40 16t17 38v256h158v-256q0 -86 -64 -150q-63 -60 -151 -60q-87 0 -152 60zM227 505l84 175h150l-136 -175h-98z" />
    <glyph glyph-name="ucircumflex" unicode="&#xfb;" horiz-adv-x="550" 
d="M123 52q-63 63 -63 150v256h158v-256q0 -22 17 -38t40 -16t40 16t17 38v256h158v-256q0 -86 -64 -150q-63 -60 -151 -60q-87 0 -152 60zM92 505l133 175h100l133 -175h-121l-62 78l-61 -78h-122z" />
    <glyph glyph-name="udieresis" unicode="&#xfc;" horiz-adv-x="550" 
d="M123 52q-63 63 -63 150v256h158v-256q0 -22 17 -38t40 -16t40 16t17 38v256h158v-256q0 -86 -64 -150q-63 -60 -151 -60q-87 0 -152 60zM379 515q-34 0 -58.5 24.5t-24.5 58.5t24.5 58.5t58.5 24.5t58 -24.5t24 -58.5t-24 -58.5t-58 -24.5zM172 515q-34 0 -58 24.5
t-24 58.5t24 58.5t58 24.5t58.5 -24.5t24.5 -58.5t-24.5 -58.5t-58.5 -24.5z" />
    <glyph glyph-name="yacute" unicode="&#xfd;" horiz-adv-x="547" 
d="M248 -211h-156l103 254l-169 415h159l89 -216l87 216h159zM228 505l84 175h150l-136 -175h-98z" />
    <glyph glyph-name="thorn" unicode="&#xfe;" 
d="M452 398q70 -72 70 -169t-70 -169q-68 -68 -168 -68q-40 0 -80 29v-232h-158v874h158v-225q40 28 80 28q100 0 168 -68zM284 148q33 0 56.5 24t23.5 57t-23.5 57t-56.5 24t-56.5 -24t-23.5 -57t23.5 -57t56.5 -24z" />
    <glyph glyph-name="ydieresis" unicode="&#xff;" horiz-adv-x="547" 
d="M248 -211h-156l103 254l-169 415h159l89 -216l87 216h159zM379 515q-34 0 -58.5 24.5t-24.5 58.5t24.5 58.5t58.5 24.5t58 -24.5t24 -58.5t-24 -58.5t-58 -24.5zM172 515q-34 0 -58 24.5t-24 58.5t24 58.5t58 24.5t58.5 -24.5t24.5 -58.5t-24.5 -58.5t-58.5 -24.5z" />
    <glyph glyph-name="Amacron" unicode="&#x100;" horiz-adv-x="735" 
d="M528 0l-61 162h-200l-63 -162h-184l274 712h146l275 -712h-187zM400 332l-33 104l-34 -104h67zM191 808v99h350v-99h-350z" />
    <glyph glyph-name="amacron" unicode="&#x101;" 
d="M270 466q50 0 79 -29v21h159v-458h-159v21q-29 -29 -79 -29q-98 0 -169 68q-69 72 -69 169t69 168q71 69 169 69zM270 148q33 0 56 24t23 57t-23 57t-56 24t-56.5 -24t-23.5 -57t23.5 -57t56.5 -24zM119 554v99h350v-99h-350z" />
    <glyph glyph-name="Abreve" unicode="&#x102;" horiz-adv-x="735" 
d="M528 0l-61 162h-200l-63 -162h-184l274 712h146l275 -712h-187zM400 332l-33 104l-34 -104h67zM368 762q-45 0 -82 29q-41 33 -41 83v23h97v-23q0 -5 8 -11.5t18 -6.5q9 0 17 6.5t9 11.5v23h96v-23q0 -51 -40 -83q-38 -29 -82 -29z" />
    <glyph glyph-name="abreve" unicode="&#x103;" 
d="M270 466q50 0 79 -29v21h159v-458h-159v21q-29 -29 -79 -29q-98 0 -169 68q-69 72 -69 169t69 168q71 69 169 69zM270 148q33 0 56 24t23 57t-23 57t-56 24t-56.5 -24t-23.5 -57t23.5 -57t56.5 -24zM285 508q-45 0 -82 29q-41 33 -41 83v23h97v-23q0 -5 8 -11.5t18 -6.5
q9 0 17 6.5t9 11.5v23h96v-23q0 -51 -40 -83q-38 -29 -82 -29z" />
    <glyph glyph-name="Aogonek" unicode="&#x104;" horiz-adv-x="737" 
d="M752 -48l95 -93l-14 -16q-54 -58 -100 -77q-38 -16 -76 -16q-21 0 -37 4q-39 9 -71 38q-34 31 -44 69q-22 72 19 140l-66 178h-187l-70 -179h-184l274 712h146l275 -712h-1l-16 -16q-34 -35 -44 -51.5t-3 -28.5q4 -11 18 -11q34 0 70 41zM337 351h53l-26 69z" />
    <glyph glyph-name="aogonek" unicode="&#x105;" horiz-adv-x="567" 
d="M546 -46l91 -88l-14 -15q-48 -53 -95 -73q-36 -15 -71 -15q-12 0 -36 4q-37 9 -67 36q-31 28 -42 65q-21 72 21 137q-37 -13 -63 -13q-98 0 -169 68q-69 72 -69 169t69 168q71 69 169 69q22 0 45.5 -8.5t33.5 -22.5v23h159v-458l-15 -15q-33 -32 -42.5 -48t-2.5 -28
q4 -10 17 -10q32 0 66 39zM270 148q33 0 56 24t23 57t-23 57t-56 24t-56.5 -24t-23.5 -57t23.5 -57t56.5 -24z" />
    <glyph glyph-name="Cacute" unicode="&#x106;" horiz-adv-x="740" 
d="M405 162q97 0 173 100l137 -101q-128 -171 -310 -171q-153 0 -262 109t-109 262t109 261.5t262 108.5q184 0 314 -174l-139 -102q-78 105 -175 105q-83 0 -141 -58t-58 -141t58 -141t141 -58zM352 759l84 175h150l-136 -175h-98z" />
    <glyph glyph-name="cacute" unicode="&#x107;" horiz-adv-x="494" 
d="M270 -8q-101 0 -168 69q-70 70 -70 168q0 96 70 168q67 69 168 69t168 -69q16 -16 24 -28l-127 -92q-24 34 -65 34q-33 0 -57 -24t-24 -58t24 -58t57 -24q40 0 65 35l126 -94q-14 -18 -23 -27q-67 -69 -168 -69zM221 505l84 175h150l-136 -175h-98z" />
    <glyph glyph-name="Ccircumflex" unicode="&#x108;" horiz-adv-x="740" 
d="M405 162q97 0 173 100l137 -101q-128 -171 -310 -171q-153 0 -262 109t-109 262t109 261.5t262 108.5q184 0 314 -174l-139 -102q-78 105 -175 105q-83 0 -141 -58t-58 -141t58 -141t141 -58zM221 759l133 175h100l133 -175h-121l-62 78l-61 -78h-122z" />
    <glyph glyph-name="ccircumflex" unicode="&#x109;" horiz-adv-x="494" 
d="M270 -8q-101 0 -168 69q-70 70 -70 168q0 96 70 168q67 69 168 69t168 -69q16 -16 24 -28l-127 -92q-24 34 -65 34q-33 0 -57 -24t-24 -58t24 -58t57 -24q40 0 65 35l126 -94q-14 -18 -23 -27q-67 -69 -168 -69zM85 505l133 175h100l133 -175h-121l-62 78l-61 -78h-122z
" />
    <glyph glyph-name="Ccaron" unicode="&#x10c;" horiz-adv-x="740" 
d="M405 162q97 0 173 100l137 -101q-128 -171 -310 -171q-153 0 -262 109t-109 262t109 261.5t262 108.5q184 0 314 -174l-139 -102q-78 105 -175 105q-83 0 -141 -58t-58 -141t58 -141t141 -58zM588 934l-133 -175h-100l-133 175h121l62 -81l61 81h122z" />
    <glyph glyph-name="ccaron" unicode="&#x10d;" horiz-adv-x="494" 
d="M270 -8q-101 0 -168 69q-70 70 -70 168q0 96 70 168q67 69 168 69t168 -69q16 -16 24 -28l-127 -92q-24 34 -65 34q-33 0 -57 -24t-24 -58t24 -58t57 -24q40 0 65 35l126 -94q-14 -18 -23 -27q-67 -69 -168 -69zM451 680l-133 -175h-100l-133 175h121l62 -81l61 81h122z
" />
    <glyph glyph-name="Dcaron" unicode="&#x10e;" horiz-adv-x="710" 
d="M65 0v712h247q151 0 257.5 -104.5t106.5 -251.5t-106.5 -251.5t-257.5 -104.5h-247zM312 171q79 0 135.5 54.5t56.5 130.5t-56.5 130.5t-135.5 54.5h-75v-370h75zM462 934l-133 -175h-100l-133 175h121l62 -81l61 81h122z" />
    <glyph glyph-name="dcaron" unicode="&#x10f;" horiz-adv-x="687" 
d="M645 506h-97l83 175h150zM346 439v295h159v-733h-159v21q-35 -29 -79 -29q-98 0 -169 68q-69 72 -69 169t69 168q71 69 169 69q40 0 79 -28zM267 149q33 0 56 24t23 57t-23 57t-56 24t-56.5 -24t-23.5 -57t23.5 -57t56.5 -24z" />
    <glyph glyph-name="Emacron" unicode="&#x112;" horiz-adv-x="607" 
d="M90 0v712h485v-170h-311v-61h272v-173h-272v-136h304v-172h-478zM155 808v99h350v-99h-350z" />
    <glyph glyph-name="emacron" unicode="&#x113;" horiz-adv-x="503" 
d="M254 -7h-1q-94 0 -159 70q-55 62 -61 143q-1 7 -1 21q0 27 6 53q14 62 56 110q65 71 159 71q96 0 159 -71q46 -51 57 -111q5 -26 2 -80v-7h-268v-2q0 -19 7 -32.5t18 -18.5t18 -6.5t13 -1.5q25 0 53 19q13 10 21 20l127 -63q-54 -61 -87 -81q-50 -31 -119 -33zM253 329
q-13 0 -29 -10.5t-19 -31.5l-1 -3h99l-1 3q-3 20 -19 31t-30 11zM91 554v99h350v-99h-350z" />
    <glyph glyph-name="Ebreve" unicode="&#x114;" horiz-adv-x="607" 
d="M90 0v712h485v-170h-311v-61h272v-173h-272v-136h304v-172h-478zM333 762q-45 0 -82 29q-41 33 -41 83v23h97v-23q0 -5 8 -11.5t18 -6.5q9 0 17 6.5t9 11.5v23h96v-23q0 -51 -40 -83q-38 -29 -82 -29z" />
    <glyph glyph-name="ebreve" unicode="&#x115;" horiz-adv-x="503" 
d="M254 -7h-1q-94 0 -159 70q-55 62 -61 143q-1 7 -1 21q0 27 6 53q14 62 56 110q65 71 159 71q96 0 159 -71q46 -51 57 -111q5 -26 2 -80v-7h-268v-2q0 -19 7 -32.5t18 -18.5t18 -6.5t13 -1.5q25 0 53 19q13 10 21 20l127 -63q-54 -61 -87 -81q-50 -31 -119 -33zM253 329
q-13 0 -29 -10.5t-19 -31.5l-1 -3h99l-1 3q-3 20 -19 31t-30 11zM261 508q-45 0 -82 29q-41 33 -41 83v23h97v-23q0 -5 8 -11.5t18 -6.5q9 0 17 6.5t9 11.5v23h96v-23q0 -51 -40 -83q-38 -29 -82 -29z" />
    <glyph glyph-name="Eogonek" unicode="&#x118;" horiz-adv-x="613" 
d="M607 -48l96 -93l-15 -16q-51 -57 -100 -77q-36 -16 -75 -16q-21 0 -37 4q-38 9 -72 38q-34 33 -44 69q-21 73 19 139h-289v712h485v-170h-311v-57h272v-173h-272v-140h304v-172h-1l-16 -16q-35 -35 -45 -51.5t-3 -28.5q7 -11 19 -11q32 0 70 41z" />
    <glyph glyph-name="eogonek" unicode="&#x119;" horiz-adv-x="503" 
d="M469 279q2 -11 3 -26.5t0.5 -26.5l-1 -23t-0.5 -13h-265q2 -27 19.5 -41.5t33.5 -14.5q18 0 35 10t24 18t9 11l132 -64q-36 -52 -86 -83q-25 -16 -64 -26l-15 -15q-32 -32 -41.5 -48t-3.5 -28q4 -10 17 -10q31 0 67 39l15 16l90 -88l-14 -15q-47 -53 -95 -73
q-35 -15 -71 -15q-13 0 -35 4q-38 9 -68 36q-32 30 -42 65q-23 80 33 153q-27 16 -52 42q-55 61 -61 143q-1 7 -1 21q0 27 6 53q13 63 56 110q65 71 159 71q96 0 159 -71q47 -51 57 -111zM207 286h93q-3 19 -18.5 29.5t-28.5 10.5t-28 -10.5t-18 -29.5z" />
    <glyph glyph-name="Ecaron" unicode="&#x11a;" horiz-adv-x="607" 
d="M90 0v712h485v-170h-311v-61h272v-173h-272v-136h304v-172h-478zM512 934l-133 -175h-100l-133 175h121l62 -81l61 81h122z" />
    <glyph glyph-name="ecaron" unicode="&#x11b;" horiz-adv-x="503" 
d="M254 -7h-1q-94 0 -159 70q-55 62 -61 143q-1 7 -1 21q0 27 6 53q14 62 56 110q65 71 159 71q96 0 159 -71q46 -51 57 -111q5 -26 2 -80v-7h-268v-2q0 -19 7 -32.5t18 -18.5t18 -6.5t13 -1.5q25 0 53 19q13 10 21 20l127 -63q-54 -61 -87 -81q-50 -31 -119 -33zM253 329
q-13 0 -29 -10.5t-19 -31.5l-1 -3h99l-1 3q-3 20 -19 31t-30 11zM440 680l-133 -175h-100l-133 175h121l62 -81l61 81h122z" />
    <glyph glyph-name="Gcircumflex" unicode="&#x11c;" horiz-adv-x="775" 
d="M406 -11q-154 0 -263 109.5t-109 263.5t109 263t263 109q156 0 264 -110l33 -34l-124 -108l-29 28q-61 59 -144 59q-86 0 -146.5 -60.5t-60.5 -146.5t60.5 -147t146.5 -61q83 0 144 59v88h-184v165h349v-312l-8 -12q-54 -72 -134 -112.5t-167 -40.5zM218 759l133 175h100
l133 -175h-121l-62 78l-61 -78h-122z" />
    <glyph glyph-name="gcircumflex" unicode="&#x11d;" 
d="M270 -211q-68 0 -127 34q-20 12 -75 65l113 101q52 -44 89 -47q28 0 50 20t28 47l1 3l-3 -1l-9 -3q-47 -15 -67 -15q-48 0 -91 18q-43 16 -78 50q-34 35 -50 78q-18 42 -18 91q0 97 68 167q71 69 169 69q41 0 78 -28l3 -2v22h156v-432q0 -48 -18 -91t-52 -77
q-33 -33 -77 -51q-42 -18 -90 -18zM270 313q-34 0 -58 -24.5t-24 -58.5q0 -35 24 -59.5t58 -24.5t57.5 24.5t23.5 59.5t-23.5 59t-57.5 24zM98 505l133 175h100l133 -175h-121l-62 78l-61 -78h-122z" />
    <glyph glyph-name="Gbreve" unicode="&#x11e;" horiz-adv-x="775" 
d="M406 -11q-154 0 -263 109.5t-109 263.5t109 263t263 109q156 0 264 -110l33 -34l-124 -108l-29 28q-61 59 -144 59q-86 0 -146.5 -60.5t-60.5 -146.5t60.5 -147t146.5 -61q83 0 144 59v88h-184v165h349v-312l-8 -12q-54 -72 -134 -112.5t-167 -40.5zM408 762
q-45 0 -82 29q-41 33 -41 83v23h97v-23q0 -5 8 -11.5t18 -6.5q9 0 17 6.5t9 11.5v23h96v-23q0 -51 -40 -83q-38 -29 -82 -29z" />
    <glyph glyph-name="gbreve" unicode="&#x11f;" 
d="M270 -211q-68 0 -127 34q-20 12 -75 65l113 101q52 -44 89 -47q28 0 50 20t28 47l1 3l-3 -1l-9 -3q-47 -15 -67 -15q-48 0 -91 18q-43 16 -78 50q-34 35 -50 78q-18 42 -18 91q0 97 68 167q71 69 169 69q41 0 78 -28l3 -2v22h156v-432q0 -48 -18 -91t-52 -77
q-33 -33 -77 -51q-42 -18 -90 -18zM270 313q-34 0 -58 -24.5t-24 -58.5q0 -35 24 -59.5t58 -24.5t57.5 24.5t23.5 59.5t-23.5 59t-57.5 24zM278 508q-45 0 -82 29q-41 33 -41 83v23h97v-23q0 -5 8 -11.5t18 -6.5q9 0 17 6.5t9 11.5v23h96v-23q0 -51 -40 -83q-38 -29 -82 -29
z" />
    <glyph glyph-name="Gcedilla" unicode="&#x122;" horiz-adv-x="775" 
d="M366 458h349v-304l-8 -12q-48 -63 -116 -102.5t-143 -48.5l-28 -104h-218l117 112q-124 30 -204.5 131t-80.5 232q0 154 109 263t263 109q156 0 264 -110l33 -34l-124 -108l-29 28q-61 59 -144 59q-86 0 -146.5 -60.5t-60.5 -146.5t60.5 -147t146.5 -61q83 0 144 59v80
h-184v165z" />
    <glyph glyph-name="imacron" unicode="&#x12b;" horiz-adv-x="350" 
d="M94 0v458h158v-458h-158zM0 554v99h350v-99h-350z" />
    <glyph glyph-name="Ibreve" unicode="&#x12c;" horiz-adv-x="365" 
d="M93 0v712h174v-712h-174zM183 762q-45 0 -82 29q-41 33 -41 83v23h97v-23q0 -5 8 -11.5t18 -6.5q9 0 17 6.5t9 11.5v23h96v-23q0 -51 -40 -83q-38 -29 -82 -29z" />
    <glyph glyph-name="dotlessi" unicode="&#x131;" horiz-adv-x="288" 
d="M65 0v458h158v-458h-158z" />
    <glyph glyph-name="Lslash" unicode="&#x141;" horiz-adv-x="700" 
d="M334 168h340v-168h-509v126l-74 -77l-119 113l193 201v349h169v-172l118 125l119 -113l-237 -248v-136z" />
    <glyph glyph-name="lslash" unicode="&#x142;" horiz-adv-x="382" 
d="M373 413l-106 -111v-302h-152v150l-106 102l106 111v318h152v-167z" />
    <glyph glyph-name="Nacute" unicode="&#x143;" horiz-adv-x="768" 
d="M520 0l-256 381v-381h-174v712h159l255 -379v379h174v-712h-158zM348 759l84 175h150l-136 -175h-98z" />
    <glyph glyph-name="nacute" unicode="&#x144;" horiz-adv-x="543" 
d="M433 401v-1q64 -66 64 -157v-243h-158v243q0 27 -19 46.5t-45 19.5q-27 0 -46 -19.5t-19 -46.5v-243h-158v458h158v-21q6 13 25.5 20.5t39.5 7.5q94 0 158 -64zM230 505l84 175h150l-136 -175h-98z" />
    <glyph glyph-name="Ncaron" unicode="&#x147;" horiz-adv-x="768" 
d="M520 0l-256 381v-381h-174v712h159l255 -379v379h174v-712h-158zM565 934l-133 -175h-100l-133 175h121l62 -81l61 81h122z" />
    <glyph glyph-name="ncaron" unicode="&#x148;" horiz-adv-x="543" 
d="M433 401v-1q64 -66 64 -157v-243h-158v243q0 27 -19 46.5t-45 19.5q-27 0 -46 -19.5t-19 -46.5v-243h-158v458h158v-21q6 13 25.5 20.5t39.5 7.5q94 0 158 -64zM461 680l-133 -175h-100l-133 175h121l62 -81l61 81h122z" />
    <glyph glyph-name="Omacron" unicode="&#x14c;" horiz-adv-x="809" 
d="M404 731q153 0 262 -109t109 -262q0 -152 -109.5 -260.5t-261.5 -108.5q-153 0 -261.5 108.5t-108.5 260.5q0 154 108.5 262.5t261.5 108.5zM404 163q81 0 138.5 58t57.5 139q0 82 -57.5 141t-138.5 59t-139 -59t-58 -141q0 -81 57.5 -139t139.5 -58zM229 808v99h350v-99
h-350z" />
    <glyph glyph-name="omacron" unicode="&#x14d;" horiz-adv-x="551" 
d="M448 398q70 -72 70 -169t-70 -169q-69 -69 -167 -69t-169 69q-69 72 -69 169t69 168q71 69 169 69q99 0 167 -68zM281 149q33 0 56 23.5t23 56.5t-23 56t-56 23q-34 0 -57 -23t-23 -56t23 -56.5t57 -23.5zM104 554v99h350v-99h-350z" />
    <glyph glyph-name="Obreve" unicode="&#x14e;" horiz-adv-x="809" 
d="M404 731q153 0 262 -109t109 -262q0 -152 -109.5 -260.5t-261.5 -108.5q-153 0 -261.5 108.5t-108.5 260.5q0 154 108.5 262.5t261.5 108.5zM404 163q81 0 138.5 58t57.5 139q0 82 -57.5 141t-138.5 59t-139 -59t-58 -141q0 -81 57.5 -139t139.5 -58zM403 762
q-45 0 -82 29q-41 33 -41 83v23h97v-23q0 -5 8 -11.5t18 -6.5q9 0 17 6.5t9 11.5v23h96v-23q0 -51 -40 -83q-38 -29 -82 -29z" />
    <glyph glyph-name="obreve" unicode="&#x14f;" horiz-adv-x="541" 
d="M438 398q70 -72 70 -169t-70 -169q-69 -69 -167 -69t-169 69q-69 72 -69 169t69 168q71 69 169 69q99 0 167 -68zM271 149q33 0 56 23.5t23 56.5t-23 56t-56 23q-34 0 -57 -23t-23 -56t23 -56.5t57 -23.5zM273 508q-45 0 -82 29q-41 33 -41 83v23h97v-23q0 -5 8 -11.5
t18 -6.5q9 0 17 6.5t9 11.5v23h96v-23q0 -51 -40 -83q-38 -29 -82 -29z" />
    <glyph glyph-name="Ohungarumlaut" unicode="&#x150;" horiz-adv-x="809" 
d="M404 731q153 0 262 -109t109 -262q0 -152 -109.5 -260.5t-261.5 -108.5q-153 0 -261.5 108.5t-108.5 260.5q0 154 108.5 262.5t261.5 108.5zM404 163q81 0 138.5 58t57.5 139q0 82 -57.5 141t-138.5 59t-139 -59t-58 -141q0 -81 57.5 -139t139.5 -58zM264 761l84 174h150
l-136 -175zM432 761l86 174h149l-135 -175z" />
    <glyph glyph-name="ohungarumlaut" unicode="&#x151;" horiz-adv-x="562" 
d="M438 398q70 -72 70 -169t-70 -169q-69 -69 -167 -69t-169 69q-69 72 -69 169t69 168q71 69 169 69q99 0 167 -68zM271 149q33 0 56 23.5t23 56.5t-23 56t-56 23q-34 0 -57 -23t-23 -56t23 -56.5t57 -23.5zM126 507l84 174h150l-136 -175zM294 507l86 174h149l-135 -175z
" />
    <glyph glyph-name="OE" unicode="&#x152;" horiz-adv-x="1031" 
d="M999 712v-170h-312v-77h272v-172h-272v-121h304v-172h-477v20q-49 -29 -110 -29q-153 0 -261.5 108.5t-108.5 260.5q0 154 108.5 262t261.5 108q54 0 115 -18h480zM514 197v328q-51 34 -110 34q-82 0 -139.5 -58.5t-57.5 -140.5q0 -81 57.5 -139t139.5 -58q61 0 110 34z
" />
    <glyph glyph-name="oe" unicode="&#x153;" horiz-adv-x="828" 
d="M790 279q7 -40 2 -89h-265q2 -27 19.5 -41.5t34.5 -14.5q18 0 35 10t25 19t8 11l132 -65q-37 -52 -86 -83q-51 -31 -120 -33h-1q-85 0 -145 57q-67 -59 -157 -59q-98 0 -169 69q-69 72 -69 169t69 168q71 69 169 69q93 0 159 -61q62 56 144 56q94 0 159 -71
q46 -52 56 -111zM272 149q33 0 56 23.5t23 56.5t-23 56t-56 23q-34 0 -57 -23t-23 -56t23 -56.5t57 -23.5zM529 286h92q-3 19 -18 29.5t-28 10.5t-28 -10.5t-18 -29.5z" />
    <glyph glyph-name="Racute" unicode="&#x154;" horiz-adv-x="703" 
d="M434 342l259 -342h-207l-236 308h-16v-308h-169v712h261q80 0 137 -57q57 -59 57 -145q0 -51 -23 -97t-63 -71zM234 542v-64h92q10 0 17 10.5t7 21.5t-7 21.5t-17 10.5h-92zM214 759l84 175h150l-136 -175h-98z" />
    <glyph glyph-name="racute" unicode="&#x155;" horiz-adv-x="390" 
d="M223 458v-26q65 34 147 34l-39 -158q-44 0 -76 -19.5t-32 -47.5v-241h-158v458h158zM146 505l84 175h150l-136 -175h-98z" />
    <glyph glyph-name="Rcaron" unicode="&#x158;" horiz-adv-x="703" 
d="M434 342l259 -342h-207l-236 308h-16v-308h-169v712h261q80 0 137 -57q57 -59 57 -145q0 -51 -23 -97t-63 -71zM234 542v-64h92q10 0 17 10.5t7 21.5t-7 21.5t-17 10.5h-92zM435 934l-133 -175h-100l-133 175h121l62 -81l61 81h122z" />
    <glyph glyph-name="rcaron" unicode="&#x159;" horiz-adv-x="441" 
d="M258 458v-26q65 34 147 34l-39 -158q-44 0 -76 -19.5t-32 -47.5v-241h-158v458h158zM431 680l-133 -175h-100l-133 175h121l62 -81l61 81h122z" />
    <glyph glyph-name="Sacute" unicode="&#x15a;" horiz-adv-x="627" 
d="M326 -6q-37 0 -72 8q-108 23 -223 121l114 131q84 -73 144 -84q22 -5 38 -5q30 0 52 11q33 16 33 46q0 35 -97 54q-115 23 -158 49q-103 61 -103 177q0 61 37 116q34 47 92 74l-1 -1q57 27 122 27q26 0 53 -4q99 -17 205 -105l-110 -132q-51 42 -84 56t-66 14
q-26 0 -46 -10q-29 -12 -29 -35q0 -33 94 -52q3 -1 10 -2t10 -2q101 -23 135 -43h-1q110 -61 110 -181q0 -72 -38 -125q-30 -44 -95 -76q-51 -27 -126 -27zM253 759l84 175h150l-136 -175h-98z" />
    <glyph glyph-name="sacute" unicode="&#x15b;" horiz-adv-x="429" 
d="M216 -11q-19 0 -37 3q-72 11 -149 63l83 113q44 -18 81 -26t51 4q6 11 -10 16t-58.5 12.5t-75.5 20.5q-65 25 -65 113q0 49 31 91q28 36 72 54q35 15 74 15q23 0 40 -4q30 -6 52.5 -16.5t79.5 -42.5l-77 -111l-12 5q-11 5 -26 11t-30.5 10.5t-28 4t-15.5 -8.5
q-4 -11 13.5 -16t52 -10t53.5 -13q34 -14 55 -45q25 -37 25 -82q0 -47 -26 -85q-26 -37 -65 -56q-42 -20 -88 -20zM156 505l84 175h150l-136 -175h-98z" />
    <glyph glyph-name="Scedilla" unicode="&#x15e;" horiz-adv-x="646" 
d="M495 403h-1q110 -61 110 -181q0 -71 -38 -124v-1q-29 -42 -95 -76q-25 -13 -69 -23l-56 -117h-208l100 130q-102 35 -207 126l114 131q99 -86 163 -98q22 -5 38 -5q30 0 52 11q33 16 33 46q0 35 -97 54q-114 23 -158 49q-103 61 -103 177q0 61 37 116q34 47 92 74l-1 -1
q57 27 122 27q26 0 53 -4q100 -17 223 -119l-110 -132q-102 84 -168 84q-26 0 -46 -10q-29 -12 -29 -35q0 -33 94 -52q3 -1 10 -2t10 -2q101 -23 135 -43z" />
    <glyph glyph-name="scedilla" unicode="&#x15f;" horiz-adv-x="421" 
d="M363 231q24 -33 24 -77t-25 -82q-22 -33 -63 -54q-19 -10 -44 -15l-43 -91h-158l77 100q-42 13 -101 52l81 106q120 -50 137 -23q5 11 -20 17.5t-65 15t-60 19.5q-63 35 -63 114q0 49 30 87q26 35 69 52q51 22 111 11q29 -6 51.5 -16.5t79.5 -42.5l-75 -104
q-79 36 -100 35q-13 -1 -19 -10q-7 -11 8 -16t51 -13t61 -20q37 -17 56 -45z" />
    <glyph glyph-name="Scaron" unicode="&#x160;" horiz-adv-x="627" 
d="M326 -6q-37 0 -72 8q-108 23 -223 121l114 131q84 -73 144 -84q22 -5 38 -5q30 0 52 11q33 16 33 46q0 35 -97 54q-115 23 -158 49q-103 61 -103 177q0 61 37 116q34 47 92 74l-1 -1q57 27 122 27q26 0 53 -4q99 -17 205 -105l-110 -132q-51 42 -84 56t-66 14
q-26 0 -46 -10q-29 -12 -29 -35q0 -33 94 -52q3 -1 10 -2t10 -2q101 -23 135 -43h-1q110 -61 110 -181q0 -72 -38 -125q-30 -44 -95 -76q-51 -27 -126 -27zM489 934l-133 -175h-100l-133 175h121l62 -81l61 81h122z" />
    <glyph glyph-name="scaron" unicode="&#x161;" horiz-adv-x="434" 
d="M221 -11q-19 0 -37 3q-72 11 -149 63l83 113q44 -18 81 -26t51 4q6 11 -10 16t-58.5 12.5t-75.5 20.5q-65 25 -65 113q0 49 31 91q28 36 72 54q35 15 74 15q23 0 40 -4q30 -6 52.5 -16.5t79.5 -42.5l-77 -111l-11 5l-27 11t-30.5 10.5t-28 4t-15.5 -8.5q-4 -11 13.5 -16
t52 -10t53.5 -13q34 -14 55 -45q25 -37 25 -82q0 -47 -26 -85q-26 -37 -65 -56q-42 -20 -88 -20zM396 680l-133 -175h-100l-133 175h121l62 -81l61 81h122z" />
    <glyph glyph-name="Tcaron" unicode="&#x164;" horiz-adv-x="531" 
d="M179 0v540h-163v172h499v-172h-163v-540h-173zM450 934l-133 -175h-100l-133 175h121l62 -81l61 81h122z" />
    <glyph glyph-name="tcaron" unicode="&#x165;" horiz-adv-x="401" 
d="M346 490h-98l84 175h149zM239 0q-69 0 -118 48.5t-49 118.5v144h-55v147h55v143h158v-143h114v-147h-114v-142q0 -14 11 -14h96l41 -155h-139z" />
    <glyph glyph-name="Umacron" unicode="&#x16a;" horiz-adv-x="705" 
d="M462 712h173v-438q0 -117 -83 -200t-200 -83q-116 0 -199 83t-83 200v438h172v-438q0 -46 32.5 -79t77.5 -33q46 0 78 32.5t32 79.5v438zM173 808v99h350v-99h-350z" />
    <glyph glyph-name="umacron" unicode="&#x16b;" horiz-adv-x="550" 
d="M123 52q-63 63 -63 150v256h158v-256q0 -22 17 -38t40 -16t40 16t17 38v256h158v-256q0 -86 -64 -150q-63 -60 -151 -60q-87 0 -152 60zM103 554v99h350v-99h-350z" />
    <glyph glyph-name="Ubreve" unicode="&#x16c;" horiz-adv-x="705" 
d="M462 712h173v-438q0 -117 -83 -200t-200 -83q-116 0 -199 83t-83 200v438h172v-438q0 -46 32.5 -79t77.5 -33q46 0 78 32.5t32 79.5v438zM353 762q-45 0 -82 29q-41 33 -41 83v23h97v-23q0 -5 8 -11.5t18 -6.5q9 0 17 6.5t9 11.5v23h96v-23q0 -51 -40 -83
q-38 -29 -82 -29z" />
    <glyph glyph-name="ubreve" unicode="&#x16d;" horiz-adv-x="550" 
d="M123 52q-63 63 -63 150v256h158v-256q0 -22 17 -38t40 -16t40 16t17 38v256h158v-256q0 -86 -64 -150q-63 -60 -151 -60q-87 0 -152 60zM274 508q-45 0 -82 29q-41 33 -41 83v23h97v-23q0 -5 8 -11.5t18 -6.5q9 0 17 6.5t9 11.5v23h96v-23q0 -51 -40 -83q-38 -29 -82 -29
z" />
    <glyph glyph-name="Uring" unicode="&#x16e;" horiz-adv-x="705" 
d="M462 712h173v-438q0 -117 -83 -200t-200 -83q-116 0 -199 83t-83 200v438h172v-438q0 -46 32.5 -79t77.5 -33q46 0 78 32.5t32 79.5v438zM353 967q44 0 74 -29.5t30 -72.5t-30.5 -73t-73.5 -30t-73.5 30t-30.5 73t30.5 72.5t73.5 29.5zM353 881q-15 0 -15 -16t15 -16
q16 0 16 16t-16 16z" />
    <glyph glyph-name="uring" unicode="&#x16f;" horiz-adv-x="550" 
d="M123 52q-63 63 -63 150v256h158v-256q0 -22 17 -38t40 -16t40 16t17 38v256h158v-256q0 -86 -64 -150q-63 -60 -151 -60q-87 0 -152 60zM277 713q44 0 74 -29.5t30 -72.5t-30.5 -73t-73.5 -30t-73.5 30t-30.5 73t30.5 72.5t73.5 29.5zM277 627q-15 0 -15 -16t15 -16
q16 0 16 16t-16 16z" />
    <glyph glyph-name="Ydieresis" unicode="&#x178;" horiz-adv-x="731" 
d="M279 0v345l-263 367h213l137 -191l137 191h212l-262 -367v-345h-174zM470 769q-34 0 -58.5 24.5t-24.5 58.5t24.5 58.5t58.5 24.5t58 -24.5t24 -58.5t-24 -58.5t-58 -24.5zM263 769q-34 0 -58 24.5t-24 58.5t24 58.5t58 24.5t58.5 -24.5t24.5 -58.5t-24.5 -58.5
t-58.5 -24.5z" />
    <glyph glyph-name="Zacute" unicode="&#x179;" horiz-adv-x="605" 
d="M66 0v148l268 395h-269v169h484v-159l-260 -384h261v-169h-484zM276 759l84 175h150l-136 -175h-98z" />
    <glyph glyph-name="zacute" unicode="&#x17a;" horiz-adv-x="427" 
d="M24 458h373v-127l-163 -192h163v-139h-372v127l166 192h-167v139zM170 505l84 175h150l-136 -175h-98z" />
    <glyph glyph-name="Zdotaccent" unicode="&#x17b;" horiz-adv-x="605" 
d="M66 0v148l268 395h-269v169h484v-159l-260 -384h261v-169h-484zM313 935q37 0 63.5 -26.5t26.5 -63.5t-26.5 -63.5t-63.5 -26.5q-38 0 -64 26.5t-26 63.5t26 63.5t64 26.5z" />
    <glyph glyph-name="zdotaccent" unicode="&#x17c;" horiz-adv-x="427" 
d="M24 458h373v-127l-163 -192h163v-139h-372v127l166 192h-167v139zM218 681q37 0 63.5 -26.5t26.5 -63.5t-26.5 -63.5t-63.5 -26.5q-38 0 -64 26.5t-26 63.5t26 63.5t64 26.5z" />
    <glyph glyph-name="Zcaron" unicode="&#x17d;" horiz-adv-x="605" 
d="M66 0v148l268 395h-269v169h484v-159l-260 -384h261v-169h-484zM508 934l-133 -175h-100l-133 175h121l62 -81l61 81h122z" />
    <glyph glyph-name="zcaron" unicode="&#x17e;" horiz-adv-x="427" 
d="M24 458h373v-127l-163 -192h163v-139h-372v127l166 192h-167v139zM399 680l-133 -175h-100l-133 175h121l62 -81l61 81h122z" />
    <glyph glyph-name="gacute" unicode="&#x1f5;" horiz-adv-x="548" 
d="M270 -211q-68 0 -127 34q-20 12 -75 65l113 101q52 -44 89 -47q28 0 50 20t28 47l1 3l-3 -1l-9 -3q-47 -15 -67 -15q-48 0 -91 18q-43 16 -78 50q-34 35 -50 78q-18 42 -18 91q0 97 68 167q71 69 169 69q41 0 78 -28l3 -2v22h156v-432q0 -48 -18 -91t-52 -77
q-33 -33 -77 -51q-42 -18 -90 -18zM270 313q-34 0 -58 -24.5t-24 -58.5q0 -35 24 -59.5t58 -24.5t57.5 24.5t23.5 59.5t-23.5 59t-57.5 24zM234 505l84 175h150l-136 -175h-98z" />
    <glyph glyph-name="circumflex" unicode="&#x2c6;" horiz-adv-x="417" 
d="M26 505l133 175h100l133 -175h-121l-62 78l-61 -78h-122z" />
    <glyph glyph-name="caron" unicode="&#x2c7;" horiz-adv-x="415" 
d="M390 680l-133 -175h-100l-133 175h121l62 -81l61 81h122z" />
    <glyph glyph-name="breve" unicode="&#x2d8;" horiz-adv-x="310" 
d="M156 508q-45 0 -82 29q-41 33 -41 83v23h97v-23q0 -5 8 -11.5t18 -6.5q9 0 17 6.5t9 11.5v23h96v-23q0 -51 -40 -83q-38 -29 -82 -29z" />
    <glyph glyph-name="dotaccent" unicode="&#x2d9;" horiz-adv-x="248" 
d="M124 681q37 0 63.5 -26.5t26.5 -63.5t-26.5 -63.5t-63.5 -26.5q-38 0 -64 26.5t-26 63.5t26 63.5t64 26.5z" />
    <glyph glyph-name="ring" unicode="&#x2da;" horiz-adv-x="276" 
d="M138 713q44 0 74 -29.5t30 -72.5t-30.5 -73t-73.5 -30t-73.5 30t-30.5 73t30.5 72.5t73.5 29.5zM138 627q-15 0 -15 -16t15 -16q16 0 16 16t-16 16z" />
    <glyph glyph-name="ogonek" unicode="&#x2db;" horiz-adv-x="405" 
d="M190 -250q-21 0 -37 4q-38 9 -72 38q-32 31 -44 69q-17 61 5.5 111.5t84.5 112.5l16 16l101 -101l-16 -16q-34 -35 -44 -51.5t-3 -28.5q4 -11 18 -11q32 0 70 41l16 18l95 -93l-14 -16q-53 -57 -100 -77q-38 -16 -76 -16z" />
    <glyph glyph-name="tilde" unicode="&#x2dc;" horiz-adv-x="399" 
d="M125 513l-88 56l14 22q17 26 37 41q31 23 70 23q22 0 44 -12l23 -12q5 -3 20 -11q8 3 16 16l14 22l87 -56l-14 -22q-41 -64 -107 -64q-30 0 -69 26q-1 0 -3 2l-14 7q-6 0 -16 -16z" />
    <glyph glyph-name="hungarumlaut" unicode="&#x2dd;" horiz-adv-x="455" 
d="M26 507l84 174h150l-136 -175zM194 507l86 174h149l-135 -175z" />
    <glyph glyph-name="endash" unicode="&#x2013;" horiz-adv-x="545" 
d="M495 306v-158h-445v158h445z" />
    <glyph glyph-name="emdash" unicode="&#x2014;" horiz-adv-x="833" 
d="M783 306v-158h-733v158h733z" />
    <glyph glyph-name="quotesinglbase" unicode="&#x201a;" horiz-adv-x="236" 
d="M188 -234h-140v201h140v-201z" />
    <glyph glyph-name="quotedblbase" unicode="&#x201e;" horiz-adv-x="386" 
d="M177 -233h-132v200h132v-200zM340 -233h-132v200h132v-200z" />
    <glyph glyph-name="dagger" unicode="&#x2020;" horiz-adv-x="434" 
d="M138 0v189h-88v158h88v111h157v-111h89v-158h-89v-189h-157z" />
    <glyph glyph-name="bullet" unicode="&#x2022;" horiz-adv-x="346" 
d="M173 356q51 0 87 -36t36 -87t-36 -87t-87 -36t-87 36t-36 87t36 87t87 36z" />
    <glyph glyph-name="ellipsis" unicode="&#x2026;" horiz-adv-x="682" 
d="M135 171q37 0 63.5 -27t26.5 -64t-26.5 -63.5t-63.5 -26.5t-63.5 26.5t-26.5 63.5t26.5 64t63.5 27zM341 171q37 0 63.5 -27t26.5 -64t-26.5 -63.5t-63.5 -26.5q-38 0 -64 26.5t-26 63.5t26 64t64 27zM546 171q37 0 64 -27t27 -64t-27 -63.5t-64 -26.5t-63.5 26.5
t-26.5 63.5t26.5 64t63.5 27z" />
    <glyph glyph-name="perthousand" unicode="&#x2030;" horiz-adv-x="1122" 
d="M168 0h179l274 712h-178zM308 686q47 -45 47 -111q0 -65 -47 -112q-47 -45 -113 -45q-65 0 -112 45q-48 46 -48 112t48 111q47 45 112 45q66 0 113 -45zM195 525q21 0 35.5 14.5t14.5 35.5q0 20 -14.5 34.5t-35.5 14.5q-20 0 -34.5 -14.5t-14.5 -34.5q0 -21 14.5 -35.5
t34.5 -14.5zM712 257q48 -46 48 -112q0 -65 -48 -111q-47 -45 -112 -45q-66 0 -113 45q-47 47 -47 111q0 65 47 112q47 45 113 45q65 0 112 -45zM600 96q20 0 34.5 14.5t14.5 34.5q0 21 -14.5 35.5t-34.5 14.5q-21 0 -35.5 -14.5t-14.5 -35.5q0 -20 14.5 -34.5t35.5 -14.5z
M1048 257q48 -46 48 -112q0 -65 -48 -111q-47 -45 -112 -45q-66 0 -113 45q-47 47 -47 111q0 65 47 112q47 45 113 45q65 0 112 -45zM936 96q20 0 34.5 14.5t14.5 34.5q0 21 -14.5 35.5t-34.5 14.5q-21 0 -35.5 -14.5t-14.5 -35.5q0 -20 14.5 -34.5t35.5 -14.5z" />
    <glyph glyph-name="fraction" unicode="&#x2044;" horiz-adv-x="468" 
d="M185 0h-179l275 712h178z" />
    <glyph glyph-name="Euro" unicode="&#x20ac;" horiz-adv-x="661" 
d="M528 163l35 9l71 -150l-49 -14q-51 -16 -107 -16q-62 0 -122 20q-59 22 -106 57q-46 37 -81 87q-23 35 -40 76h-104v113h88v39h-88v112h104q18 44 40 77q35 51 81 86q47 37 106 57q58 21 122 21q55 0 109 -17l49 -15l-71 -149l-35 9q-26 6 -52 6q-98 0 -160 -75h152v-112
h-168v-39h168v-113h-152q64 -75 160 -75q26 0 50 6z" />
    <glyph glyph-name="trademark" unicode="&#x2122;" horiz-adv-x="333" 
d="M122 427h-51v87h-28v51h108v-51h-29v-87zM290 427h-51v39l-12 -16l-12 16v-39h-52v138h43l21 -29l20 29h43v-138z" />
    <glyph glyph-name="minus" unicode="&#x2212;" horiz-adv-x="432" 
d="M50 306h332v-158h-332v158z" />
    <glyph glyph-name="ibreve" horiz-adv-x="285" 
d="M59 0v458h158v-458h-158zM140 508q-45 0 -82 29q-41 33 -41 83v23h97v-23q0 -5 8 -11.5t18 -6.5q9 0 17 6.5t9 11.5v23h96v-23q0 -51 -40 -83q-38 -29 -82 -29z" />
    <glyph glyph-name="Imacron" horiz-adv-x="430" 
d="M124 0v712h174v-712h-174zM40 808v99h350v-99h-350z" />
    <glyph glyph-name="S_2" horiz-adv-x="627" 
 />
    </font>
</defs>
</svg>
